<svg width="29" height="26" viewBox="0 0 29 26" fill="none" xmlns="http://www.w3.org/2000/svg">
<path d="M8.79887 3.54324C9.11129 3.54324 9.36457 3.29718 9.36457 2.99366C9.36457 2.69013 9.11129 2.44408 8.79887 2.44408C8.48644 2.44408 8.23317 2.69013 8.23317 2.99366C8.23317 3.29718 8.48644 3.54324 8.79887 3.54324Z" fill="currentColor"/>
<path d="M11.8898 3.54324C12.2022 3.54324 12.4555 3.29718 12.4555 2.99366C12.4555 2.69013 12.2022 2.44408 11.8898 2.44408C11.5774 2.44408 11.3241 2.69013 11.3241 2.99366C11.3241 3.29718 11.5774 3.54324 11.8898 3.54324Z" fill="currentColor"/>
<path d="M15.3986 3.54323C15.6278 3.54502 15.8355 3.41226 15.9245 3.2071C16.0135 3.00186 15.9663 2.76478 15.8048 2.60666C15.6434 2.44855 15.3997 2.40069 15.1877 2.48552C14.9758 2.57026 14.8375 2.77095 14.8375 2.99366C14.8375 3.29542 15.0879 3.54079 15.3986 3.54323Z" fill="currentColor"/>
<path d="M18.4893 3.54323C18.7185 3.54502 18.9262 3.41226 19.0153 3.2071C19.1042 3.00186 19.057 2.76478 18.8956 2.60666C18.7341 2.44855 18.4905 2.40069 18.2785 2.48552C18.0665 2.57026 17.9282 2.77095 17.9282 2.99366C17.9282 3.29542 18.1786 3.54079 18.4893 3.54323Z" fill="currentColor"/>
<path fill-rule="evenodd" clip-rule="evenodd" d="M26.9475 5.85431C27.5619 5.92239 28.1222 6.22798 28.5019 6.70215C29.2953 7.68073 29.1223 9.0987 28.1156 9.87009L26.5058 11.1167L27.4257 12.2427C27.6552 12.5334 27.602 12.9493 27.3061 13.1765L22.7069 16.7197V25.3298C22.7069 25.6999 22.398 26 22.017 26H5.68988C5.30886 26 5 25.6999 5 25.3298V0.670215C5 0.300064 5.30886 0 5.68988 0H22.017C22.3926 0.00729625 22.6932 0.30524 22.6931 0.670215V8.30627L25.2365 6.34026C25.7164 5.96139 26.3331 5.78622 26.9475 5.85431ZM6.6373 1.34044H6.37975V4.52172H6.6603C6.72444 4.28659 6.94342 4.12287 7.19385 4.12287C7.44419 4.12287 7.66325 4.28659 7.72731 4.52172H9.75101C9.81506 4.28659 10.0341 4.12287 10.2845 4.12287C10.5349 4.12287 10.7539 4.28659 10.818 4.52172H13.2648C13.3253 4.28456 13.5445 4.11808 13.796 4.11808C14.0475 4.11808 14.2666 4.28456 14.3272 4.52172H16.3508C16.415 4.28659 16.634 4.12287 16.8844 4.12287C17.1347 4.12287 17.3537 4.28659 17.4178 4.52172H19.8831C19.9471 4.28659 20.1662 4.12287 20.4165 4.12287C20.6669 4.12287 20.8859 4.28659 20.9501 4.52172H21.3731V1.34044H20.973C20.9751 1.35227 20.9751 1.36435 20.973 1.37618C20.9924 1.58354 20.8894 1.78368 20.7071 1.89312C20.5248 2.00265 20.2944 2.00265 20.1122 1.89312C19.9299 1.78368 19.8269 1.58354 19.8462 1.37618V1.34044H17.4869C17.4889 1.35227 17.4889 1.36435 17.4869 1.37618C17.5061 1.58354 17.4032 1.78368 17.2209 1.89312C17.0386 2.00265 16.8082 2.00265 16.626 1.89312C16.4437 1.78368 16.3407 1.58354 16.36 1.37618V1.34044H14.387V1.37618C14.4063 1.58354 14.3033 1.78368 14.121 1.89312C13.9388 2.00265 13.7084 2.00265 13.5261 1.89312C13.3438 1.78368 13.2409 1.58354 13.2602 1.37618V1.34044H10.864V1.37618C10.8833 1.58354 10.7804 1.78368 10.598 1.89312C10.4157 2.00265 10.1854 2.00265 10.0032 1.89312C9.82085 1.78368 9.7179 1.58354 9.73718 1.37618C9.73512 1.36435 9.73512 1.35227 9.73718 1.34044H7.7595V1.37618C7.72334 1.65043 7.48301 1.85583 7.1984 1.85583C6.91387 1.85583 6.67354 1.65043 6.6373 1.37618V1.34044ZM21.3134 24.6595H6.37975V5.89347H21.3134V9.38308L12.4186 16.2506C12.3313 16.3187 12.262 16.406 12.2161 16.5052L11.1031 18.9582C11.0367 19.1157 11.0367 19.2922 11.1031 19.4497L10.381 20.0082C10.0826 20.239 10.0332 20.6611 10.2707 20.951C10.5082 21.2409 10.9426 21.289 11.2412 21.0583L11.954 20.5042C12.0674 20.5811 12.202 20.6232 12.3404 20.6248C12.4042 20.6247 12.4677 20.6157 12.5289 20.598L15.0815 19.9055C15.17 19.8808 15.2527 19.8399 15.3252 19.7849L21.3042 15.1425L21.3134 24.6595ZM14.7366 18.5159L24.5927 10.8933L23.4383 9.44564L22.6932 10.0176L13.527 17.1084L14.7366 18.5159ZM22.6931 15.0084V14.0746L25.4526 11.9522L25.9125 12.5375L22.6931 15.0084ZM27.2693 8.82456C27.4678 8.67409 27.5941 8.4513 27.6189 8.20796H27.6418C27.7097 7.83226 27.5245 7.45615 27.1809 7.27163C26.8373 7.08703 26.411 7.13472 26.1196 7.39026L24.542 8.61006L25.6964 10.0578L27.2693 8.82456Z" fill="currentColor"/>
</svg>
