<svg width="12" height="13" viewBox="0 0 12 13" fill="none" xmlns="http://www.w3.org/2000/svg">
<path d="M2.1875 4.81252V9.84377C2.1875 9.9874 2.21579 10.1296 2.27076 10.2623C2.32572 10.395 2.40629 10.5156 2.50785 10.6172C2.60942 10.7187 2.72999 10.7993 2.86269 10.8543C2.99539 10.9092 3.13762 10.9375 3.28125 10.9375H9.84375C10.1338 10.9375 10.412 10.8223 10.6171 10.6172C10.8223 10.412 10.9375 10.1338 10.9375 9.84377V3.28127C10.9375 2.99118 10.8223 2.71299 10.6171 2.50787C10.412 2.30275 10.1338 2.18752 9.84375 2.18752H5.26422" stroke="currentColor" stroke-width="0.875" stroke-linecap="round" stroke-linejoin="round"/>
<path d="M0.110982 0.143563C0.150938 0.0996599 0.19938 0.0643139 0.253382 0.0396607C0.307383 0.0150074 0.365822 0.00155891 0.425168 0.000127664C0.484513 -0.00130358 0.543533 0.00931217 0.59866 0.0313335C0.653788 0.0533549 0.703877 0.0863246 0.745903 0.12825L1.08415 0.464852C1.12514 0.505871 1.14817 0.561489 1.14817 0.619481C1.14817 0.677472 1.12514 0.73309 1.08415 0.77411L0.774068 1.08364C0.753742 1.10406 0.729582 1.12027 0.702975 1.13132C0.676369 1.14238 0.647841 1.14807 0.619029 1.14807C0.590217 1.14807 0.561688 1.14238 0.535082 1.13132C0.508476 1.12027 0.484315 1.10406 0.46399 1.08364L0.134224 0.755516C-0.0325727 0.588992 -0.0481591 0.317742 0.110982 0.143563ZM1.76801 1.14845L6.70411 6.07579C6.73403 6.1056 6.75579 6.1426 6.76727 6.18325L6.99559 6.86329C7.00106 6.88174 7.00145 6.90133 6.99671 6.91998C6.99198 6.93864 6.98229 6.95567 6.96869 6.96927C6.95508 6.98288 6.93805 6.99257 6.91939 6.9973C6.90074 7.00204 6.88115 7.00165 6.8627 6.99618L6.18321 6.76786C6.14256 6.75638 6.10555 6.73462 6.07575 6.7047L1.1484 1.76806C1.10282 1.72198 1.07725 1.65978 1.07725 1.59497C1.07725 1.53015 1.10282 1.46796 1.1484 1.42188L1.42047 1.14845C1.46661 1.10244 1.5291 1.07661 1.59424 1.07661C1.65939 1.07661 1.72188 1.10244 1.76801 1.14845Z" fill="currentColor"/>
</svg>
