<svg width="22" height="20" viewBox="0 0 22 20" fill="none" xmlns="http://www.w3.org/2000/svg">
<g clip-path="url(#clip0_9_2324)">
<path d="M3.51245 9.99999C3.51245 10.3286 3.79693 10.5964 4.1459 10.5964C4.49487 10.5964 4.77555 10.3286 4.77555 9.99999C4.77555 9.67142 4.49487 9.40356 4.1459 9.40356C3.79693 9.40356 3.51245 9.67142 3.51245 9.99999Z" fill="currentColor"/>
<path d="M6.58484 9.99999C6.58484 10.3286 6.86932 10.5964 7.21829 10.5964C7.56725 10.5964 7.84794 10.3286 7.84794 9.99999C7.84794 9.67142 7.56725 9.40356 7.21829 9.40356C6.86932 9.40356 6.58484 9.67142 6.58484 9.99999Z" fill="currentColor"/>
<path d="M9.65735 9.99999C9.65735 10.3286 9.94183 10.5964 10.2908 10.5964C10.636 10.5964 10.9205 10.3286 10.9205 9.99999C10.9205 9.67142 10.636 9.40356 10.2908 9.40356C9.94183 9.40356 9.65735 9.67142 9.65735 9.99999Z" fill="currentColor"/>
<path d="M21.4576 9.61067L17.2056 5.61067C16.9856 5.39996 16.6252 5.39996 16.4014 5.61067C16.1814 5.81782 16.1814 6.1571 16.4014 6.36782L19.69 9.46424H13.0559C12.7411 9.46424 12.4869 9.70353 12.4869 9.99996C12.4869 10.2964 12.7411 10.5357 13.0559 10.5357H19.69L16.4014 13.6321C16.1814 13.8428 16.1814 14.1821 16.4014 14.3892C16.5152 14.4928 16.6594 14.5464 16.8035 14.5464C16.9514 14.5464 17.0956 14.4928 17.2056 14.3892L21.4576 10.3892C21.5638 10.2892 21.6245 10.1321 21.6245 9.98924C21.6245 9.84639 21.5638 9.71067 21.4576 9.61067Z" fill="currentColor"/>
<path d="M13.4883 14.9321C13.1735 14.9321 12.9194 15.1714 12.9194 15.4678V18.3714H1.89281V1.62856H12.9194V4.53213C12.9194 4.82856 13.1735 5.06784 13.4883 5.06784C13.8032 5.06784 14.0573 4.82856 14.0573 4.53213V1.09284C14.0573 0.796415 13.8032 0.557129 13.4883 0.557129H1.32385C1.00902 0.557129 0.754883 0.796415 0.754883 1.09284V18.9071C0.754883 19.2036 1.00902 19.4428 1.32385 19.4428H13.4883C13.8032 19.4428 14.0573 19.2036 14.0573 18.9071V15.4678C14.0573 15.1714 13.8032 14.9321 13.4883 14.9321Z" fill="currentColor"/>
</g>
<defs>
<clipPath id="clip0_9_2324">
<rect width="22" height="20" fill="white"/>
</clipPath>
</defs>
</svg>
