<svg width="26" height="28" viewBox="0 0 26 28" fill="none" xmlns="http://www.w3.org/2000/svg">
<path d="M8.64091 3.90194C8.39091 3.90194 8.19091 4.10516 8.19091 4.34903C8.19091 4.59742 8.39091 4.79613 8.64091 4.79613C8.88636 4.79613 9.09091 4.59742 9.09091 4.34903C9.09091 4.10516 8.88636 3.90194 8.64091 3.90194Z" fill="currentColor"/>
<path d="M7.31818 5.21613C7.06818 5.21613 6.86818 5.41484 6.86818 5.66323C6.86818 5.91161 7.06818 6.11032 7.31818 6.11032C7.56364 6.11032 7.76818 5.91161 7.76818 5.66323C7.76818 5.41484 7.56364 5.21613 7.31818 5.21613Z" fill="currentColor"/>
<path d="M9.96364 5.21613C9.71364 5.21613 9.51364 5.41484 9.51364 5.66323C9.51364 5.91161 9.71364 6.11032 9.96364 6.11032C10.2091 6.11032 10.4136 5.91161 10.4136 5.66323C10.4136 5.41484 10.2091 5.21613 9.96364 5.21613Z" fill="currentColor"/>
<path d="M12.4864 3.41871C12.7364 3.41871 12.9364 3.22 12.9364 2.97161C12.9364 2.72323 12.7364 2.52452 12.4864 2.52452C12.2409 2.52452 12.0364 2.72323 12.0364 2.97161C12.0364 3.22 12.2409 3.41871 12.4864 3.41871Z" fill="currentColor"/>
<path d="M16.2909 4.96774C16.5409 4.96774 16.7409 4.76452 16.7409 4.52065C16.7409 4.27226 16.5409 4.06903 16.2909 4.06903C16.0409 4.06903 15.8409 4.27226 15.8409 4.52065C15.8409 4.76452 16.0409 4.96774 16.2909 4.96774Z" fill="currentColor"/>
<path d="M17.6955 6.11484C17.9455 6.11484 18.1455 5.91161 18.1455 5.66774C18.1455 5.41935 17.9455 5.21613 17.6955 5.21613C17.4455 5.21613 17.2455 5.41935 17.2455 5.66774C17.2455 5.91161 17.4455 6.11484 17.6955 6.11484Z" fill="currentColor"/>
<path d="M15.05 5.21613C14.8 5.21613 14.6 5.41935 14.6 5.66774C14.6 5.91161 14.8 6.11484 15.05 6.11484C15.3 6.11484 15.5 5.91161 15.5 5.66774C15.5 5.41935 15.3 5.21613 15.05 5.21613Z" fill="currentColor"/>
<path d="M12.5 9.75484C12.25 9.75484 12.05 9.95355 12.05 10.2019C12.05 10.4458 12.25 10.649 12.5 10.649C12.75 10.649 12.95 10.4458 12.95 10.2019C12.95 9.95355 12.75 9.75484 12.5 9.75484Z" fill="currentColor"/>
<path d="M12.5273 15.3097C12.2773 15.3097 12.0773 15.5084 12.0773 15.7568C12.0773 16.0006 12.2773 16.2039 12.5273 16.2039C12.7727 16.2039 12.9773 16.0006 12.9773 15.7568C12.9773 15.5084 12.7727 15.3097 12.5273 15.3097Z" fill="currentColor"/>
<path d="M12.5273 17.9335C12.2773 17.9335 12.0773 18.1368 12.0773 18.3806C12.0773 18.629 12.2773 18.8323 12.5273 18.8323C12.7727 18.8323 12.9773 18.629 12.9773 18.3806C12.9773 18.1368 12.7727 17.9335 12.5273 17.9335Z" fill="currentColor"/>
<path d="M12.5273 20.5619C12.2773 20.5619 12.0773 20.7652 12.0773 21.009C12.0773 21.2574 12.2773 21.4561 12.5273 21.4561C12.7727 21.4561 12.9773 21.2574 12.9773 21.009C12.9773 20.7652 12.7727 20.5619 12.5273 20.5619Z" fill="currentColor"/>
<path d="M12.5273 23.1903C12.2773 23.1903 12.0773 23.389 12.0773 23.6374C12.0773 23.8858 12.2773 24.0845 12.5273 24.0845C12.7727 24.0845 12.9773 23.8858 12.9773 23.6374C12.9773 23.389 12.7727 23.1903 12.5273 23.1903Z" fill="currentColor"/>
<path d="M24.3409 7.28452H19.1909C19.7045 7.07226 20.1227 6.88258 20.3682 6.76516C20.5273 6.68839 20.6545 6.5529 20.7182 6.39032C20.9227 5.83032 20.6136 4.64258 19.9227 3.36452C19.3909 2.38452 18.5864 1.29161 17.9091 1.15613C17.7848 1.13204 17.6621 1.14108 17.5409 1.18323C17.0136 1.37892 16.4864 1.66946 15.9591 2.05484C15.9773 1.81398 15.9939 1.57613 16.0091 1.34129C16.0182 1.16516 15.9591 0.989032 15.8409 0.858065C15.3818 0.343226 13.9091 0 12.1727 0C10.4773 0 9.10909 0.325161 8.69091 0.830968C8.61212 0.930323 8.56364 1.04323 8.54545 1.16968C8.52121 1.33527 8.50455 1.50538 8.49545 1.68C8.15606 1.47527 7.81818 1.30968 7.48182 1.18323C7.35758 1.14108 7.23333 1.13204 7.10909 1.15613C6.43182 1.29161 5.62727 2.38452 5.09545 3.36452C4.40909 4.64258 4.09545 5.83032 4.30455 6.39032C4.36364 6.5529 4.49091 6.68839 4.65 6.76516C4.89545 6.88258 5.31364 7.07226 5.82727 7.28452H0.681818C0.304545 7.28452 0 7.59161 0 7.96194V12.4374C0 12.8123 0.304545 13.1148 0.681818 13.1148H1.71364V26.9568C1.71364 27.3316 2.01818 27.6342 2.39545 27.6342H22.6273C23.0045 27.6342 23.3091 27.3316 23.3091 26.9568V13.1148H24.3409C24.7136 13.1148 25.0227 12.8123 25.0227 12.4374V7.96194C25.0227 7.59161 24.7136 7.28452 24.3409 7.28452ZM17.7045 2.58323C17.7106 2.58624 17.7152 2.59075 17.7182 2.59677C17.7121 2.59376 17.7045 2.59226 17.6955 2.59226C17.6924 2.59226 17.6909 2.59226 17.6909 2.59226C17.6939 2.58925 17.6985 2.58624 17.7045 2.58323ZM9.85909 1.66645C10.0364 1.59871 10.3364 1.5129 10.7727 1.44968C10.7364 1.5129 10.7167 1.58215 10.7136 1.65742C10.7136 1.90581 10.9182 2.10452 11.1636 2.10452C11.4136 2.10452 11.6136 1.90581 11.6136 1.65742C11.6106 1.54903 11.5758 1.4557 11.5091 1.37742C11.7121 1.36237 11.9333 1.35484 12.1727 1.35484C12.6606 1.35785 13.0803 1.38194 13.4318 1.4271C13.3864 1.49634 13.3621 1.57312 13.3591 1.65742C13.3591 1.90581 13.5591 2.10452 13.8091 2.10452C14.0591 2.10452 14.2591 1.90581 14.2591 1.65742C14.2561 1.63032 14.25 1.60323 14.2409 1.57613C14.3985 1.61527 14.5258 1.6529 14.6227 1.68903C14.5864 2.24903 14.5364 2.8271 14.4682 3.40065C14.4227 3.45183 14.3758 3.50301 14.3273 3.55419C14.2909 3.59634 14.2545 3.63699 14.2182 3.67613C14.1545 3.7514 14.0909 3.82667 14.0273 3.90194C13.9636 3.8628 13.8909 3.84172 13.8091 3.83871C13.5591 3.83871 13.3591 4.03742 13.3591 4.28581C13.3621 4.40021 13.4015 4.49806 13.4773 4.57935C13.4167 4.65763 13.3576 4.73591 13.3 4.81419C13.2758 4.85032 13.25 4.88495 13.2227 4.91806C13.1561 5.00839 13.0924 5.0972 13.0318 5.18452C13.0076 5.21763 12.9833 5.25075 12.9591 5.28387C12.9348 5.32 12.9091 5.35763 12.8818 5.39677C12.8045 5.25226 12.6591 5.1529 12.4864 5.1529C12.3273 5.1529 12.1955 5.23871 12.1136 5.36064C12.1076 5.35161 12.103 5.34409 12.1 5.33806C12.0364 5.25075 11.9712 5.16043 11.9045 5.0671C11.8652 5.0129 11.8242 4.9572 11.7818 4.9C11.7091 4.80064 11.6333 4.69978 11.5545 4.59742C11.5424 4.57935 11.5303 4.5628 11.5182 4.54774C11.5788 4.47247 11.6106 4.38516 11.6136 4.28581C11.6136 4.03742 11.4136 3.83871 11.1636 3.83871C11.097 3.83871 11.0348 3.85226 10.9773 3.87935C10.8742 3.75892 10.7667 3.63699 10.6545 3.51355C10.6182 3.47441 10.5818 3.43527 10.5455 3.39613C10.4545 3.29978 10.3606 3.20344 10.2636 3.1071C10.2818 3.06495 10.2909 3.01978 10.2909 2.97161C10.2909 2.73226 10.1 2.53806 9.86364 2.52903C9.84242 2.22495 9.84091 1.93742 9.85909 1.66645ZM7.33182 2.59226C7.32576 2.58925 7.32121 2.58774 7.31818 2.58774C7.31212 2.58774 7.30758 2.58925 7.30454 2.59226C7.30758 2.58925 7.31061 2.58624 7.31364 2.58323C7.3197 2.58624 7.32576 2.58925 7.33182 2.59226ZM9.45909 26.2794H3.07727V13.1148H9.45909V26.2794ZM9.45909 11.76H1.36364V8.63935H9.45909V11.76ZM10.6364 7.25742C10.1955 7.23936 9.65909 7.13548 9.09091 6.98645C9.09091 6.98344 9.09091 6.98194 9.09091 6.98194C9.09091 6.73355 8.88636 6.53032 8.64091 6.53032C8.47727 6.53032 8.34545 6.62064 8.26364 6.7471C7.36364 6.45806 6.42727 6.08323 5.63182 5.72645C5.66818 5.51871 5.76364 5.19355 5.93182 4.7871C5.95303 4.79312 5.97424 4.79763 5.99545 4.80064C6.24545 4.80064 6.44545 4.59742 6.44545 4.35355C6.44545 4.21806 6.38636 4.10516 6.29091 4.02387C6.29394 4.01785 6.29697 4.01183 6.3 4.00581C6.50909 3.62344 6.70152 3.31785 6.87727 3.08903C6.90455 3.31032 7.08636 3.48645 7.31818 3.48645C7.56364 3.48645 7.76818 3.28323 7.76818 3.03935C7.76515 2.93398 7.7303 2.84366 7.66364 2.76839C8.0303 2.97312 8.4 3.23806 8.77273 3.56323C9.82273 4.48 10.6773 5.66323 11.2727 6.53484C11.0273 6.54387 10.8318 6.73806 10.8318 6.98194C10.8379 7.08731 10.8727 7.17763 10.9364 7.2529C10.9061 7.25591 10.8758 7.25742 10.8455 7.25742C10.7667 7.26043 10.697 7.26043 10.6364 7.25742ZM14.1955 14.1716C14.1136 14.0677 13.9909 13.9955 13.85 13.9955C13.6 13.9955 13.4 14.1942 13.4 14.4426C13.4 14.691 13.6 14.8897 13.85 14.8897C13.9909 14.8897 14.1136 14.8174 14.1955 14.7181V16.8C14.1136 16.6961 13.9909 16.6239 13.85 16.6239C13.6 16.6239 13.4 16.8226 13.4 17.071C13.4 17.3194 13.6 17.5181 13.85 17.5181C13.9909 17.5181 14.1136 17.4458 14.1955 17.3419V19.4239C14.1136 19.32 13.9909 19.2523 13.85 19.2523C13.6 19.2523 13.4 19.451 13.4 19.6994C13.4 19.9432 13.6 20.1465 13.85 20.1465C13.9909 20.1465 14.1136 20.0742 14.1955 19.9703V22.0523C14.1136 21.9484 13.9909 21.8806 13.85 21.8806C13.6 21.8806 13.4 22.0794 13.4 22.3277C13.4 22.5716 13.6 22.7748 13.85 22.7748C13.9909 22.7748 14.1136 22.7026 14.1955 22.5987V24.6806C14.1136 24.5768 13.9909 24.5045 13.85 24.5045C13.6 24.5045 13.4 24.7077 13.4 24.9561C13.4 25.2 13.6 25.4032 13.85 25.4032C13.9909 25.4032 14.1136 25.331 14.1955 25.2271V26.2794H12.9727C12.9727 26.2763 12.9742 26.2718 12.9773 26.2658C12.9773 26.0219 12.7727 25.8187 12.5273 25.8187C12.2773 25.8187 12.0773 26.0219 12.0773 26.2658C12.0773 26.2718 12.0773 26.2763 12.0773 26.2794H10.8227V25.1819C10.9045 25.3084 11.0409 25.4032 11.2045 25.4032C11.45 25.4032 11.6545 25.2 11.6545 24.9561C11.6545 24.7077 11.45 24.5045 11.2045 24.5045C11.0409 24.5045 10.9045 24.5994 10.8227 24.7258V22.5535C10.9045 22.68 11.0409 22.7748 11.2045 22.7748C11.45 22.7748 11.6545 22.5716 11.6545 22.3277C11.6545 22.0794 11.45 21.8806 11.2045 21.8806C11.0409 21.8806 10.9045 21.971 10.8227 22.0974V19.9252C10.9045 20.0561 11.0409 20.1465 11.2045 20.1465C11.45 20.1465 11.6545 19.9432 11.6545 19.6994C11.6545 19.451 11.45 19.2523 11.2045 19.2523C11.0409 19.2523 10.9045 19.3426 10.8227 19.4735V17.2968C10.9045 17.4277 11.0409 17.5181 11.2045 17.5181C11.45 17.5181 11.6545 17.3194 11.6545 17.071C11.6545 16.8226 11.45 16.6239 11.2045 16.6239C11.0409 16.6239 10.9045 16.7142 10.8227 16.8452V14.6684C10.9045 14.7994 11.0409 14.8897 11.2045 14.8897C11.45 14.8897 11.6545 14.691 11.6545 14.4426C11.6545 14.1942 11.45 13.9955 11.2045 13.9955C11.0409 13.9955 10.9045 14.0858 10.8227 14.2168V13.1148H12.0773C12.0773 13.1209 12.0773 13.1254 12.0773 13.1284C12.0773 13.3768 12.2773 13.5755 12.5273 13.5755C12.7727 13.5755 12.9773 13.3768 12.9773 13.1284C12.9742 13.1254 12.9727 13.1209 12.9727 13.1148H14.1955V14.1716ZM14.1955 11.2813C14.1136 11.1594 13.9818 11.069 13.8227 11.069C13.5727 11.069 13.3727 11.2723 13.3727 11.5206C13.3758 11.611 13.403 11.6923 13.4545 11.7645H11.5455C11.597 11.6923 11.6242 11.611 11.6273 11.5206C11.6273 11.2723 11.4273 11.069 11.1773 11.069C11.0318 11.069 10.9045 11.1458 10.8227 11.2542V9.15419C10.9045 9.26258 11.0318 9.33935 11.1773 9.33935C11.4273 9.33935 11.6273 9.13613 11.6273 8.89226C11.6242 8.79892 11.597 8.71613 11.5455 8.64387H13.4545C13.403 8.71613 13.3758 8.79892 13.3727 8.89226C13.3727 9.13613 13.5727 9.33935 13.8227 9.33935C13.9818 9.33935 14.1136 9.24903 14.1955 9.1271V11.2813ZM14.1955 11.76H14.1909C14.1909 11.757 14.1924 11.754 14.1955 11.751V11.76ZM14.1955 8.6529C14.1924 8.64989 14.1909 8.64538 14.1909 8.63935H14.1955V8.6529ZM14.2045 7.25742C14.1591 7.25742 14.1167 7.25742 14.0773 7.25742C14.1409 7.17914 14.1742 7.08731 14.1773 6.98194C14.1773 6.74258 13.9864 6.54839 13.7455 6.53935C14.2182 5.84839 14.8455 4.96774 15.6136 4.1729C16.1985 3.56774 16.7727 3.10559 17.3364 2.78645C17.2788 2.85871 17.2485 2.94301 17.2455 3.03935C17.2455 3.28774 17.4455 3.49097 17.6955 3.49097C17.9273 3.49097 18.1136 3.31032 18.1364 3.08452C18.3121 3.31333 18.5061 3.62194 18.7182 4.01032C18.7212 4.01333 18.7242 4.01634 18.7273 4.01935C18.6318 4.10064 18.5682 4.21806 18.5682 4.35355C18.5682 4.60194 18.7682 4.80064 19.0182 4.80064C19.0424 4.79763 19.0652 4.79312 19.0864 4.7871C19.2545 5.19806 19.35 5.51871 19.3864 5.72645C18.5864 6.08774 17.65 6.46258 16.75 6.75161C16.6682 6.62516 16.5318 6.53484 16.3727 6.53484C16.1227 6.53484 15.9227 6.73806 15.9227 6.98194C15.9227 6.98495 15.9227 6.98796 15.9227 6.99097C15.3636 7.13548 14.8364 7.23936 14.4045 7.25742H14.2045ZM21.9455 26.2839H15.5591V13.1148H21.9455V26.2839ZM23.6591 11.7645H15.5591V8.64839H23.6591V11.7645Z" fill="currentColor"/>
</svg>
