<svg width="32" height="30" viewBox="0 0 32 30" fill="none" xmlns="http://www.w3.org/2000/svg">
<path d="M23.8325 11.7752C24.1256 11.7752 24.3632 11.5432 24.3632 11.257C24.3632 10.9708 24.1256 10.7388 23.8325 10.7388C23.5394 10.7388 23.3017 10.9708 23.3017 11.257C23.3017 11.3944 23.3577 11.5262 23.4572 11.6234C23.5567 11.7206 23.6917 11.7752 23.8325 11.7752Z" fill="currentColor"/>
<path d="M25.3965 13.3353C25.7083 13.3353 25.9611 13.0884 25.9611 12.784C25.9611 12.4795 25.7083 12.2327 25.3965 12.2327C25.0846 12.2327 24.8318 12.4795 24.8318 12.784C24.8318 13.0884 25.0846 13.3353 25.3965 13.3353Z" fill="currentColor"/>
<path d="M17.5878 5.6782C17.8614 5.6507 18.0693 5.4257 18.0693 5.1573C18.0693 4.8888 17.8614 4.6639 17.5878 4.6363C17.3841 4.6159 17.1862 4.7104 17.0778 4.8801C16.9694 5.0497 16.9694 5.2648 17.0778 5.4345C17.1862 5.6042 17.3841 5.6987 17.5878 5.6782Z" fill="currentColor"/>
<path d="M19.1462 7.1997C19.4393 7.1997 19.6769 6.9677 19.6769 6.6815C19.6769 6.3953 19.4393 6.1633 19.1462 6.1633C18.8531 6.1633 18.6154 6.3953 18.6154 6.6815C18.6154 6.9677 18.8531 7.1997 19.1462 7.1997Z" fill="currentColor"/>
<path d="M19.1462 10.2537C19.4394 10.2563 19.6804 10.0286 19.6873 9.7424C19.6943 9.4562 19.4645 9.2176 19.1716 9.2067C18.8786 9.1958 18.6309 9.4166 18.6154 9.7024C18.6077 9.8451 18.6601 9.9846 18.7603 10.0887C18.8605 10.1928 18.9999 10.2524 19.1462 10.2537Z" fill="currentColor"/>
<path d="M22.2685 10.2537C22.4722 10.2742 22.6701 10.1796 22.7785 10.01C22.8869 9.8403 22.8869 9.6252 22.7785 9.4555C22.6701 9.2859 22.4722 9.1913 22.2685 9.2118C21.995 9.2393 21.7871 9.4643 21.7871 9.7328C21.7871 10.0012 21.995 10.2262 22.2685 10.2537Z" fill="currentColor"/>
<path d="M20.7102 8.7267C20.9281 8.7289 21.1258 8.6022 21.2103 8.406C21.2947 8.2098 21.2492 7.9832 21.0951 7.8327C20.9409 7.6822 20.7089 7.6378 20.5079 7.7202C20.307 7.8027 20.1772 7.9957 20.1794 8.2085C20.1794 8.4947 20.4171 8.7267 20.7102 8.7267Z" fill="currentColor"/>
<path d="M17.5878 8.7267C17.8614 8.6992 18.0693 8.4742 18.0693 8.2058C18.0693 7.9373 17.8614 7.7123 17.5878 7.6848C17.3841 7.6643 17.1862 7.7589 17.0778 7.9286C16.9694 8.0982 16.9694 8.3133 17.0778 8.483C17.1862 8.6526 17.3841 8.7472 17.5878 8.7267Z" fill="currentColor"/>
<path d="M20.7102 11.7752C21.0033 11.7752 21.2409 11.5432 21.2409 11.257C21.2409 10.9708 21.0033 10.7388 20.7102 10.7388C20.4171 10.7388 20.1794 10.9708 20.1794 11.257C20.1794 11.3944 20.2354 11.5262 20.3349 11.6234C20.4344 11.7206 20.5694 11.7752 20.7102 11.7752Z" fill="currentColor"/>
<path d="M17.5879 11.7752C17.8802 11.7721 18.115 11.5388 18.1129 11.2534C18.1109 10.9679 17.8727 10.7378 17.5804 10.7388C17.288 10.7398 17.0515 10.9715 17.0515 11.257C17.0515 11.3954 17.1082 11.528 17.2089 11.6254C17.3097 11.7227 17.4461 11.7766 17.5879 11.7752Z" fill="currentColor"/>
<path d="M19.1462 13.3022C19.3642 13.3044 19.5618 13.1776 19.6463 12.9814C19.7308 12.7853 19.6852 12.5587 19.5311 12.4082C19.377 12.2577 19.1449 12.2133 18.944 12.2957C18.743 12.3782 18.6132 12.5712 18.6155 12.784C18.6155 12.9214 18.6714 13.0532 18.7709 13.1504C18.8704 13.2476 19.0054 13.3022 19.1462 13.3022Z" fill="currentColor"/>
<path d="M22.2685 13.3022C22.4865 13.3044 22.6841 13.1776 22.7686 12.9814C22.8531 12.7853 22.8075 12.5587 22.6534 12.4082C22.4993 12.2577 22.2672 12.2133 22.0663 12.2957C21.8653 12.3782 21.7355 12.5712 21.7378 12.784C21.7408 13.0689 21.9767 13.2992 22.2685 13.3022Z" fill="currentColor"/>
<path d="M16.0239 4.1512C16.317 4.1512 16.5546 3.9192 16.5546 3.633C16.5546 3.3469 16.317 3.1149 16.0239 3.1149C15.7308 3.1149 15.4931 3.3469 15.4931 3.633C15.4931 3.9192 15.7308 4.1512 16.0239 4.1512Z" fill="currentColor"/>
<path d="M14.4599 5.6782C14.6778 5.6805 14.8755 5.5537 14.96 5.3575C15.0444 5.1613 14.9989 4.9347 14.8448 4.7843C14.6907 4.6338 14.4586 4.5893 14.2576 4.6718C14.0567 4.7543 13.9269 4.9472 13.9292 5.1601C13.9458 5.4392 14.174 5.6619 14.4599 5.6782Z" fill="currentColor"/>
<path d="M12.9016 7.1997C13.1947 7.1997 13.4323 6.9677 13.4323 6.6815C13.4323 6.3953 13.1947 6.1633 12.9016 6.1633C12.6085 6.1633 12.3708 6.3953 12.3708 6.6815C12.3708 6.8189 12.4268 6.9507 12.5263 7.0479C12.6258 7.1451 12.7608 7.1997 12.9016 7.1997Z" fill="currentColor"/>
<path d="M16.0239 7.1997C16.317 7.1997 16.5546 6.9677 16.5546 6.6815C16.5546 6.3953 16.317 6.1633 16.0239 6.1633C15.7308 6.1633 15.4931 6.3953 15.4931 6.6815C15.4931 6.9677 15.7308 7.1997 16.0239 7.1997Z" fill="currentColor"/>
<path d="M12.9016 10.2537C13.1948 10.2563 13.4358 10.0286 13.4427 9.7424C13.4496 9.4562 13.2199 9.2176 12.9269 9.2067C12.634 9.1958 12.3863 9.4166 12.3708 9.7024C12.3631 9.8451 12.4154 9.9846 12.5156 10.0887C12.6159 10.1928 12.7553 10.2524 12.9016 10.2537Z" fill="currentColor"/>
<path d="M16.0239 10.2537C16.3171 10.2563 16.5581 10.0286 16.565 9.7424C16.572 9.4562 16.3422 9.2176 16.0493 9.2067C15.7563 9.1958 15.5086 9.4166 15.4931 9.7024C15.4854 9.8451 15.5378 9.9846 15.638 10.0887C15.7382 10.1928 15.8776 10.2524 16.0239 10.2537Z" fill="currentColor"/>
<path d="M14.4599 8.7267C14.6778 8.7289 14.8755 8.6022 14.96 8.406C15.0444 8.2098 14.9989 7.9832 14.8448 7.8327C14.6907 7.6822 14.4586 7.6378 14.2576 7.7202C14.0567 7.8027 13.9269 7.9957 13.9292 8.2085C13.9322 8.4935 14.168 8.7237 14.4599 8.7267Z" fill="currentColor"/>
<path d="M11.3376 8.7267C11.5555 8.7289 11.7532 8.6022 11.8377 8.406C11.9221 8.2098 11.8766 7.9832 11.7225 7.8327C11.5684 7.6822 11.3363 7.6378 11.1354 7.7202C10.9344 7.8027 10.8046 7.9957 10.8069 8.2085C10.8069 8.3459 10.8628 8.4777 10.9623 8.5749C11.0618 8.6721 11.1968 8.7267 11.3376 8.7267Z" fill="currentColor"/>
<path d="M14.4599 11.7752C14.753 11.7752 14.9906 11.5432 14.9906 11.257C14.9906 10.9708 14.753 10.7388 14.4599 10.7388C14.1668 10.7388 13.9292 10.9708 13.9292 11.257C13.9322 11.5419 14.168 11.7722 14.4599 11.7752Z" fill="currentColor"/>
<path d="M11.3376 11.7752C11.6307 11.7752 11.8683 11.5432 11.8683 11.257C11.8683 10.9708 11.6307 10.7388 11.3376 10.7388C11.0445 10.7388 10.8069 10.9708 10.8069 11.257C10.8069 11.3944 10.8628 11.5262 10.9623 11.6234C11.0618 11.7206 11.1968 11.7752 11.3376 11.7752Z" fill="currentColor"/>
<path d="M12.9016 13.3022C13.1195 13.3044 13.3172 13.1776 13.4017 12.9814C13.4861 12.7853 13.4406 12.5587 13.2865 12.4082C13.1323 12.2577 12.9003 12.2133 12.6993 12.2957C12.4984 12.3782 12.3686 12.5712 12.3708 12.784C12.3708 12.9214 12.4268 13.0532 12.5263 13.1504C12.6258 13.2476 12.7608 13.3022 12.9016 13.3022Z" fill="currentColor"/>
<path d="M16.0239 13.3022C16.2418 13.3044 16.4395 13.1776 16.524 12.9814C16.6084 12.7853 16.5629 12.5587 16.4088 12.4082C16.2547 12.2577 16.0226 12.2133 15.8216 12.2957C15.6207 12.3782 15.4909 12.5712 15.4931 12.784C15.4931 12.9214 15.5491 13.0532 15.6486 13.1504C15.7481 13.2476 15.8831 13.3022 16.0239 13.3022Z" fill="currentColor"/>
<path d="M9.7793 10.2537C10.0717 10.2533 10.31 10.0242 10.3148 9.7387C10.3197 9.4532 10.0894 9.2165 9.7971 9.2066C9.5048 9.1967 9.2583 9.4173 9.2429 9.7024C9.2351 9.846 9.2882 9.9864 9.3896 10.0907C9.4911 10.1949 9.632 10.2539 9.7793 10.2537Z" fill="currentColor"/>
<path d="M8.2153 11.7752C8.4299 11.7752 8.6235 11.6489 8.7056 11.4553C8.7877 11.2616 8.7423 11.0388 8.5905 10.8906C8.4388 10.7424 8.2105 10.698 8.0122 10.7782C7.8138 10.8584 7.6845 11.0474 7.6845 11.257C7.6845 11.3944 7.7404 11.5262 7.84 11.6234C7.9395 11.7206 8.0745 11.7752 8.2153 11.7752Z" fill="currentColor"/>
<path d="M6.6513 13.3022C6.8692 13.3044 7.0669 13.1776 7.1514 12.9814C7.2358 12.7853 7.1903 12.5587 7.0362 12.4082C6.882 12.2577 6.65 12.2133 6.449 12.2957C6.2481 12.3782 6.1183 12.5712 6.1205 12.784C6.1236 13.0689 6.3594 13.2992 6.6513 13.3022Z" fill="currentColor"/>
<path d="M9.7792 13.3022C10.0527 13.2747 10.2607 13.0497 10.2607 12.7812C10.2607 12.5128 10.0527 12.2878 9.7792 12.2603C9.5755 12.2398 9.3776 12.3344 9.2692 12.504C9.1608 12.6737 9.1608 12.8888 9.2692 13.0584C9.3776 13.2281 9.5755 13.3227 9.7792 13.3022Z" fill="currentColor"/>
<path d="M25.3965 16.3506C25.67 16.3231 25.8779 16.0982 25.8779 15.8297C25.8779 15.5612 25.67 15.3363 25.3965 15.3088C25.1927 15.2883 24.9948 15.3828 24.8864 15.5525C24.778 15.7221 24.778 15.9373 24.8864 16.1069C24.9948 16.2766 25.1927 16.3711 25.3965 16.3506Z" fill="currentColor"/>
<path d="M26.9548 14.8236C27.2479 14.8236 27.4855 14.5916 27.4855 14.3055C27.4855 14.0193 27.2479 13.7873 26.9548 13.7873C26.6617 13.7873 26.4241 14.0193 26.4241 14.3055C26.4241 14.4429 26.48 14.5747 26.5795 14.6719C26.6791 14.769 26.814 14.8236 26.9548 14.8236Z" fill="currentColor"/>
<path d="M23.8325 14.8236C24.1256 14.8236 24.3632 14.5916 24.3632 14.3055C24.3632 14.0193 24.1256 13.7873 23.8325 13.7873C23.5394 13.7873 23.3017 14.0193 23.3017 14.3055C23.3017 14.4429 23.3577 14.5747 23.4572 14.6719C23.5567 14.769 23.6917 14.8236 23.8325 14.8236Z" fill="currentColor"/>
<path d="M23.8325 17.8776C24.0499 17.8799 24.2472 17.7537 24.332 17.5582C24.4168 17.3627 24.3724 17.1365 24.2194 16.9856C24.0665 16.8347 23.8353 16.7889 23.6342 16.8696C23.4331 16.9503 23.3018 17.1416 23.3017 17.3539C23.3017 17.641 23.5385 17.8746 23.8325 17.8776Z" fill="currentColor"/>
<path d="M25.3965 19.4322C25.7083 19.4322 25.9611 19.1854 25.9611 18.8809C25.9611 18.5765 25.7083 18.3297 25.3965 18.3297C25.0846 18.3297 24.8318 18.5765 24.8318 18.8809C24.8318 19.1854 25.0846 19.4322 25.3965 19.4322Z" fill="currentColor"/>
<path d="M25.3965 22.4476C25.6888 22.4445 25.9236 22.2112 25.9215 21.9258C25.9195 21.6403 25.6813 21.4102 25.389 21.4112C25.0966 21.4122 24.8601 21.6439 24.8601 21.9294C24.8601 22.0678 24.9168 22.2004 25.0175 22.2978C25.1183 22.3951 25.2547 22.4491 25.3965 22.4476Z" fill="currentColor"/>
<path d="M23.8325 20.9537C24.1443 20.9537 24.3971 20.7069 24.3971 20.4024C24.3971 20.098 24.1443 19.8511 23.8325 19.8511C23.5207 19.8511 23.2679 20.098 23.2679 20.4024C23.2679 20.7069 23.5207 20.9537 23.8325 20.9537Z" fill="currentColor"/>
<path d="M23.8325 23.9746C24.0504 23.9768 24.2481 23.85 24.3326 23.6538C24.417 23.4577 24.3715 23.2311 24.2174 23.0806C24.0632 22.9301 23.8312 22.8857 23.6302 22.9681C23.4293 23.0506 23.2995 23.2436 23.3017 23.4564C23.3017 23.5938 23.3577 23.7256 23.4572 23.8228C23.5567 23.92 23.6917 23.9746 23.8325 23.9746Z" fill="currentColor"/>
<path d="M25.3965 25.5291C25.7083 25.5291 25.9611 25.2823 25.9611 24.9779C25.9611 24.6734 25.7083 24.4266 25.3965 24.4266C25.0846 24.4266 24.8318 24.6734 24.8318 24.9779C24.8318 25.2823 25.0846 25.5291 25.3965 25.5291Z" fill="currentColor"/>
<path d="M23.8325 27.0561C24.1443 27.0561 24.3971 26.8093 24.3971 26.5049C24.3971 26.2004 24.1443 25.9536 23.8325 25.9536C23.5207 25.9536 23.2679 26.2004 23.2679 26.5049C23.2679 26.8093 23.5207 27.0561 23.8325 27.0561Z" fill="currentColor"/>
<path d="M22.2685 16.3506C22.4865 16.3529 22.6841 16.2261 22.7686 16.0299C22.8531 15.8337 22.8075 15.6071 22.6534 15.4567C22.4993 15.3062 22.2672 15.2617 22.0663 15.3442C21.8653 15.4267 21.7355 15.6196 21.7378 15.8324C21.7408 16.1174 21.9767 16.3477 22.2685 16.3506Z" fill="currentColor"/>
<path d="M20.7102 14.8236C21.0033 14.8236 21.2409 14.5916 21.2409 14.3055C21.2409 14.0193 21.0033 13.7873 20.7102 13.7873C20.4171 13.7873 20.1794 14.0193 20.1794 14.3055C20.1794 14.4429 20.2354 14.5747 20.3349 14.6719C20.4344 14.769 20.5694 14.8236 20.7102 14.8236Z" fill="currentColor"/>
<path d="M22.2685 19.3991C22.5616 19.3991 22.7992 19.1671 22.7992 18.8809C22.7992 18.5947 22.5616 18.3627 22.2685 18.3627C21.9754 18.3627 21.7378 18.5947 21.7378 18.8809C21.7408 19.1659 21.9767 19.3961 22.2685 19.3991Z" fill="currentColor"/>
<path d="M22.2685 22.4476C22.4832 22.4476 22.6767 22.3213 22.7588 22.1277C22.841 21.9341 22.7956 21.7112 22.6438 21.563C22.492 21.4148 22.2637 21.3704 22.0654 21.4507C21.8671 21.5309 21.7378 21.7198 21.7378 21.9294C21.7408 22.2143 21.9767 22.4446 22.2685 22.4476Z" fill="currentColor"/>
<path d="M22.2685 25.5016C22.4722 25.522 22.6701 25.4275 22.7785 25.2578C22.8869 25.0882 22.8869 24.8731 22.7785 24.7034C22.6701 24.5338 22.4722 24.4392 22.2685 24.4597C21.995 24.4872 21.7871 24.7122 21.7871 24.9806C21.7871 25.2491 21.995 25.4741 22.2685 25.5016Z" fill="currentColor"/>
<path d="M11.3376 14.8236C11.6307 14.8236 11.8683 14.5916 11.8683 14.3055C11.8683 14.0193 11.6307 13.7873 11.3376 13.7873C11.0445 13.7873 10.8069 14.0193 10.8069 14.3055C10.8069 14.4429 10.8628 14.5747 10.9623 14.6719C11.0618 14.769 11.1968 14.8236 11.3376 14.8236Z" fill="currentColor"/>
<path d="M6.6513 16.3506C6.8692 16.3529 7.0669 16.2261 7.1514 16.0299C7.2358 15.8337 7.1903 15.6071 7.0362 15.4567C6.882 15.3062 6.65 15.2617 6.449 15.3442C6.2481 15.4267 6.1183 15.6196 6.1205 15.8324C6.1236 16.1174 6.3594 16.3477 6.6513 16.3506Z" fill="currentColor"/>
<path d="M9.7792 16.3506C10.0527 16.3231 10.2607 16.0982 10.2607 15.8297C10.2607 15.5612 10.0527 15.3363 9.7792 15.3088C9.5755 15.2883 9.3776 15.3828 9.2692 15.5525C9.1608 15.7221 9.1608 15.9373 9.2692 16.1069C9.3776 16.2766 9.5755 16.3711 9.7792 16.3506Z" fill="currentColor"/>
<path d="M8.2153 14.8236C8.4299 14.8236 8.6235 14.6974 8.7056 14.5038C8.7877 14.3101 8.7423 14.0872 8.5905 13.939C8.4388 13.7908 8.2105 13.7465 8.0122 13.8267C7.8138 13.9069 7.6845 14.0959 7.6845 14.3055C7.6845 14.4429 7.7404 14.5747 7.84 14.6719C7.9395 14.769 8.0745 14.8236 8.2153 14.8236Z" fill="currentColor"/>
<path d="M5.093 14.8237C5.3101 14.8234 5.5052 14.6939 5.5854 14.4969C5.6656 14.2998 5.6148 14.075 5.4571 13.9292C5.2994 13.7834 5.0667 13.7461 4.8695 13.8351C4.6724 13.9241 4.5507 14.1213 4.5622 14.333C4.5772 14.6084 4.8105 14.824 5.093 14.8237Z" fill="currentColor"/>
<path d="M8.2153 17.8776C8.4327 17.8799 8.63 17.7537 8.7148 17.5582C8.7996 17.3627 8.7551 17.1365 8.6022 16.9856C8.4492 16.8347 8.2181 16.7889 8.017 16.8696C7.8158 16.9503 7.6845 17.1416 7.6845 17.3539C7.6845 17.641 7.9212 17.8746 8.2153 17.8776Z" fill="currentColor"/>
<path d="M6.6513 19.3991C6.9444 19.3991 7.182 19.1671 7.182 18.8809C7.182 18.5947 6.9444 18.3627 6.6513 18.3627C6.3582 18.3627 6.1205 18.5947 6.1205 18.8809C6.1236 19.1659 6.3594 19.3961 6.6513 19.3991Z" fill="currentColor"/>
<path d="M9.7793 19.3991C10.0716 19.3961 10.3064 19.1627 10.3043 18.8773C10.3023 18.5918 10.0641 18.3618 9.7717 18.3628C9.4794 18.3638 9.2429 18.5955 9.2429 18.8809C9.2429 19.0193 9.2996 19.152 9.4003 19.2493C9.5011 19.3466 9.6375 19.4006 9.7793 19.3991Z" fill="currentColor"/>
<path d="M6.6513 22.4476C6.8659 22.4476 7.0595 22.3213 7.1416 22.1277C7.2238 21.9341 7.1784 21.7112 7.0266 21.563C6.8748 21.4148 6.6465 21.3704 6.4482 21.4507C6.2499 21.5309 6.1205 21.7198 6.1205 21.9294C6.1236 22.2143 6.3594 22.4446 6.6513 22.4476Z" fill="currentColor"/>
<path d="M9.7793 22.4476C10.0716 22.4445 10.3064 22.2112 10.3043 21.9258C10.3023 21.6403 10.0641 21.4102 9.7717 21.4112C9.4794 21.4122 9.2429 21.6439 9.2429 21.9294C9.2429 22.0678 9.2996 22.2004 9.4003 22.2978C9.5011 22.3951 9.6375 22.4491 9.7793 22.4476Z" fill="currentColor"/>
<path d="M8.2153 20.9481C8.5085 20.9508 8.7495 20.723 8.7564 20.4369C8.7633 20.1507 8.5336 19.9121 8.2406 19.9012C7.9477 19.8902 7.7 20.111 7.6845 20.3969C7.6768 20.5395 7.7291 20.6791 7.8294 20.7832C7.9296 20.8872 8.069 20.9468 8.2153 20.9481Z" fill="currentColor"/>
<path d="M8.2153 23.9746C8.4332 23.9768 8.6309 23.85 8.7153 23.6538C8.7998 23.4577 8.7543 23.2311 8.6002 23.0806C8.446 22.9301 8.214 22.8857 8.013 22.9681C7.8121 23.0506 7.6822 23.2436 7.6845 23.4564C7.6845 23.5938 7.7404 23.7256 7.84 23.8228C7.9395 23.92 8.0745 23.9746 8.2153 23.9746Z" fill="currentColor"/>
<path d="M6.6513 25.5016C6.855 25.522 7.0529 25.4275 7.1613 25.2578C7.2697 25.0882 7.2697 24.8731 7.1613 24.7034C7.0529 24.5338 6.855 24.4392 6.6513 24.4597C6.3778 24.4872 6.1699 24.7122 6.1699 24.9806C6.1699 25.2491 6.3778 25.4741 6.6513 25.5016Z" fill="currentColor"/>
<path d="M9.7793 25.5016C10.0755 25.5016 10.3156 25.2671 10.3156 24.9779C10.3156 24.6886 10.0755 24.4542 9.7793 24.4542C9.483 24.4542 9.2429 24.6886 9.2429 24.9779C9.2429 25.1168 9.2994 25.25 9.4 25.3482C9.5006 25.4464 9.637 25.5016 9.7793 25.5016Z" fill="currentColor"/>
<path d="M8.2153 27.012C8.4299 27.012 8.6235 26.8858 8.7056 26.6921C8.7877 26.4985 8.7423 26.2756 8.5905 26.1274C8.4388 25.9792 8.2105 25.9349 8.0122 26.0151C7.8138 26.0953 7.6845 26.2842 7.6845 26.4938C7.6845 26.6313 7.7404 26.7631 7.84 26.8602C7.9395 26.9574 8.0745 27.012 8.2153 27.012Z" fill="currentColor"/>
<path d="M31.7314 13.9251L16.6111 0.209713C16.4568 0.0726631 16.255 -0.00219735 16.0465 0.000112651H15.9561C15.7474 -0.00331735 15.5452 0.0716931 15.3915 0.209713L0.30503 13.9251C0.0676501 14.1093 -0.0439995 14.4079 0.0159705 14.6981C0.0759305 14.9883 0.2974 15.2212 0.58937 15.3012C0.88133 15.3812 1.19457 15.2947 1.40038 15.0772L16.0182 1.847L30.6361 15.0772C30.7872 15.2198 30.9906 15.2972 31.2007 15.2922C31.4253 15.2895 31.6392 15.198 31.7935 15.0386C31.9366 14.883 32.0105 14.6781 31.9988 14.4693C31.9872 14.2604 31.891 14.0647 31.7314 13.9251Z" fill="currentColor"/>
<path d="M27.9711 14.8292C27.754 14.8247 27.5443 14.9058 27.3892 15.0541C27.2341 15.2024 27.1467 15.4055 27.1468 15.6175V16.8798C27.0811 16.851 27.0099 16.836 26.9379 16.8357C26.6643 16.8633 26.4564 17.0882 26.4564 17.3567C26.4564 17.6251 26.6643 17.8501 26.9379 17.8776C27.0099 17.8774 27.0811 17.8624 27.1468 17.8335V19.9283C27.0811 19.8995 27.0099 19.8845 26.9379 19.8842C26.6643 19.9117 26.4564 20.1367 26.4564 20.4052C26.4564 20.6736 26.6643 20.8986 26.9379 20.9261C27.0099 20.9259 27.0811 20.9108 27.1468 20.882V22.9768C27.0811 22.948 27.0099 22.9329 26.9379 22.9327C26.6643 22.9602 26.4564 23.1852 26.4564 23.4536C26.4564 23.7221 26.6643 23.9471 26.9379 23.9746C27.0099 23.9743 27.0811 23.9593 27.1468 23.9305V26.0253C27.0807 25.9982 27.0095 25.985 26.9379 25.9867C26.6447 25.9867 26.4071 26.2187 26.4071 26.5049C26.4071 26.791 26.6447 27.023 26.9379 27.023C27.0099 27.0228 27.0811 27.0078 27.1468 26.9789V28.4122H25.7352C25.8461 28.3154 25.9098 28.1771 25.9103 28.0319C25.9312 27.8329 25.8344 27.6397 25.6606 27.5339C25.4869 27.428 25.2665 27.428 25.0928 27.5339C24.919 27.6397 24.8222 27.8329 24.8431 28.0319C24.8437 28.1771 24.9073 28.3154 25.0182 28.4122H22.6299C22.737 28.3127 22.7998 28.1761 22.8049 28.0319C22.8259 27.8329 22.729 27.6397 22.5553 27.5339C22.3815 27.428 22.1612 27.428 21.9874 27.5339C21.8136 27.6397 21.7168 27.8329 21.7378 28.0319C21.7383 28.1771 21.8019 28.3154 21.9128 28.4122H20.8626V27.012C21.0808 26.9378 21.2307 26.7413 21.2409 26.5159C21.2307 26.2905 21.0808 26.094 20.8626 26.0198V23.9525C21.0808 23.8783 21.2307 23.6818 21.2409 23.4564C21.2408 23.2276 21.0871 23.026 20.8626 22.9603V20.8985C21.0888 20.8362 21.245 20.6346 21.245 20.4052C21.245 20.1757 21.0888 19.9741 20.8626 19.9118V17.8501C21.0871 17.7844 21.2408 17.5827 21.2409 17.3539C21.2307 17.1286 21.0808 16.932 20.8626 16.8578V15.5403C20.8595 15.1092 20.5024 14.7605 20.0609 14.7575H17.8645C18.0683 14.6343 18.1637 14.394 18.0981 14.1689C18.0325 13.9438 17.8219 13.7885 17.5822 13.7885C17.3425 13.7885 17.1319 13.9438 17.0663 14.1689C17.0007 14.394 17.0961 14.6343 17.2999 14.7575H14.7535C14.9748 14.6327 15.0827 14.3784 15.0166 14.1374C14.9504 13.8964 14.7267 13.7288 14.4712 13.7288C14.2156 13.7288 13.992 13.8964 13.9258 14.1374C13.8597 14.3784 13.9676 14.6327 14.1889 14.7575C11.7893 14.7575 11.7215 14.8347 11.5239 15.0276C11.3758 15.1751 11.291 15.3723 11.2868 15.5789V16.8523C11.0272 16.8956 10.8328 17.1083 10.8181 17.365C10.8166 17.6279 11.019 17.8494 11.2868 17.8776V19.9008C11.0163 19.9281 10.8107 20.1507 10.8107 20.4162C10.8107 20.6817 11.0163 20.9043 11.2868 20.9316V22.9492C11.0163 22.9766 10.8107 23.1991 10.8107 23.4647C10.8107 23.7302 11.0163 23.9527 11.2868 23.9801V26.0032C11.0263 26.0406 10.8332 26.2588 10.8332 26.5159C10.8332 26.773 11.0263 26.9912 11.2868 27.0286V28.4232H10.1575C10.2684 28.3264 10.3321 28.1882 10.3326 28.0429C10.3536 27.844 10.2567 27.6508 10.0829 27.5449C9.9092 27.4391 9.6888 27.4391 9.5151 27.5449C9.3413 27.6508 9.2445 27.844 9.2654 28.0429C9.2705 28.1872 9.3334 28.3237 9.4405 28.4232H7.0126C7.1235 28.3264 7.1872 28.1882 7.1877 28.0429C7.2087 27.844 7.1118 27.6508 6.938 27.5449C6.7643 27.4391 6.5439 27.4391 6.3702 27.5449C6.1964 27.6508 6.0996 27.844 6.1206 28.0429C6.1211 28.1882 6.1847 28.3264 6.2956 28.4232H4.8671V26.9734C4.9375 27.0067 5.0148 27.0237 5.093 27.023C5.3861 27.023 5.6237 26.791 5.6237 26.5049C5.6237 26.2187 5.3861 25.9867 5.093 25.9867C5.0148 25.986 4.9375 26.003 4.8671 26.0363V23.925C4.9375 23.9582 5.0148 23.9752 5.093 23.9746C5.3665 23.9471 5.5744 23.7221 5.5744 23.4536C5.5744 23.1852 5.3665 22.9602 5.093 22.9327C5.0151 22.9347 4.9384 22.9516 4.8671 22.9823V20.8765C4.9384 20.9072 5.0151 20.9241 5.093 20.9261C5.3665 20.8986 5.5744 20.6736 5.5744 20.4052C5.5744 20.1367 5.3665 19.9117 5.093 19.8842C5.0151 19.8862 4.9384 19.9031 4.8671 19.9338V17.828C4.9384 17.8587 5.0151 17.8756 5.093 17.8776C5.3665 17.8501 5.5744 17.6251 5.5744 17.3567C5.5744 17.0882 5.3665 16.8633 5.093 16.8357C5.0148 16.8351 4.9375 16.8521 4.8671 16.8854V15.6175C4.8926 15.3211 4.745 15.036 4.4856 14.8802C4.2261 14.7243 3.8989 14.7243 3.6395 14.8802C3.3801 15.036 3.2325 15.3211 3.258 15.6175V29.2171C3.2611 29.6503 3.6216 29.9999 4.0654 29.9999H12.0829C12.5266 29.9999 12.8872 29.6503 12.8903 29.2171V16.3286C14.2058 16.3286 17.0458 16.3286 19.2478 16.3286V29.2171C19.2509 29.6503 19.6115 29.9999 20.0552 29.9999H27.9598C28.1749 30.0028 28.3823 29.9218 28.536 29.7748C28.6897 29.6279 28.777 29.4271 28.7785 29.2171V15.6175C28.7785 15.1821 28.417 14.8292 27.9711 14.8292Z" fill="currentColor"/>
</svg>
