<svg width="28" height="26" viewBox="0 0 28 26" fill="none" xmlns="http://www.w3.org/2000/svg">
<path fill-rule="evenodd" clip-rule="evenodd" d="M26.6322 24.1077L24.4274 22.8036C24.3872 22.532 24.1637 22.3192 23.8827 22.3192C23.8105 22.3192 23.7423 22.3355 23.6783 22.3607L22.5403 21.6872C22.6909 21.5864 22.7967 21.4216 22.7967 21.2261C22.7967 20.9142 22.5449 20.6608 22.2357 20.6608C21.9418 20.6608 21.7073 20.8913 21.6831 21.1808L16.202 17.9392C16.2028 17.9289 16.2084 17.92 16.2084 17.9093C16.2084 17.5975 15.9568 17.3441 15.6475 17.3441C15.571 17.3441 15.4978 17.3599 15.4314 17.3884L16.8352 16.5576C16.9362 16.7093 17.1003 16.8158 17.2946 16.8158C17.6038 16.8158 17.8555 16.5623 17.8555 16.2509C17.8555 16.1576 17.8272 16.0726 17.7869 15.9947L23.3859 12.6835C23.3474 12.7601 23.3209 12.8428 23.3209 12.9342C23.3209 13.2455 23.5731 13.4989 23.8827 13.4989C24.192 13.4989 24.4437 13.2455 24.4437 12.9342C24.4437 12.6317 24.2054 12.3891 23.9092 12.3741L25.121 11.6572C25.2239 11.7682 25.3672 11.8406 25.5299 11.8406C25.8391 11.8406 26.0907 11.5872 26.0907 11.2758C26.0907 11.2152 26.074 11.1596 26.0565 11.1046L26.6322 10.7638V24.1077ZM22.7795 24.6221C22.7837 24.5951 22.7962 24.5709 22.7962 24.5428C22.7962 24.231 22.5446 23.9775 22.2354 23.9775C21.9257 23.9775 21.674 24.231 21.674 24.5428C21.674 24.5709 21.6855 24.5951 21.6897 24.6221H19.4859C19.4901 24.5951 19.5022 24.5709 19.5022 24.5428C19.5022 24.231 19.2504 23.9775 18.9412 23.9775C18.6316 23.9775 18.3798 24.231 18.3798 24.5428C18.3798 24.5709 18.3919 24.5951 18.3956 24.6221H16.1918C16.1955 24.5951 16.208 24.5709 16.208 24.5428C16.208 24.231 15.9563 23.9775 15.6471 23.9775C15.3374 23.9775 15.0857 24.231 15.0857 24.5428C15.0857 24.5709 15.0974 24.5951 15.1015 24.6221H12.8982C12.9019 24.5951 12.9139 24.5709 12.9139 24.5428C12.9139 24.231 12.6623 23.9775 12.353 23.9775C12.0434 23.9775 11.7917 24.231 11.7917 24.5428C11.7917 24.5709 11.8036 24.5951 11.8074 24.6221H9.6036C9.60727 24.5951 9.61987 24.5709 9.61987 24.5428C9.61987 24.231 9.36808 23.9775 9.0589 23.9775C8.74918 23.9775 8.4975 24.231 8.4975 24.5428C8.4975 24.5709 8.50913 24.5951 8.51323 24.6221H6.30943C6.31363 24.5951 6.32569 24.5709 6.32569 24.5428C6.32569 24.231 6.07402 23.9775 5.76483 23.9775C5.45511 23.9775 5.20344 24.231 5.20344 24.5428C5.20344 24.5709 5.2155 24.5951 5.21959 24.6221H3.19898L8.54941 21.4576C8.63794 21.6531 8.83178 21.7908 9.0589 21.7908C9.36808 21.7908 9.61987 21.5374 9.61987 21.2261C9.61987 21.1001 9.57022 20.989 9.50119 20.8951L10.8353 20.1058C10.9489 20.0779 11.0485 20.0214 11.1231 19.936L13.9996 18.2347L16.8765 19.936C16.9512 20.0214 17.0504 20.0774 17.1634 20.1058L18.4985 20.8951C18.429 20.989 18.3798 21.1001 18.3798 21.2261C18.3798 21.5374 18.6316 21.7908 18.9412 21.7908C19.1679 21.7908 19.3617 21.6531 19.4497 21.4576L24.8007 24.6221H22.7795ZM1.368 10.7638L1.94372 11.1046C1.92606 11.1596 1.90937 11.2152 1.90937 11.2758C1.90937 11.5872 2.16115 11.8406 2.47077 11.8406C2.63263 11.8406 2.77629 11.7682 2.8787 11.6572L3.81885 12.2136C3.84523 12.235 3.86892 12.2579 3.89811 12.2751L4.07289 12.3788C3.78546 12.403 3.55694 12.6388 3.55694 12.9342C3.55694 13.2455 3.80862 13.4989 4.11834 13.4989C4.42752 13.4989 4.6792 13.2455 4.6792 12.9342C4.6792 12.8507 4.65561 12.7746 4.62223 12.7037L10.2078 16.0073C10.1711 16.082 10.1446 16.1623 10.1446 16.2509C10.1446 16.5623 10.3969 16.8158 10.7066 16.8158C10.8961 16.8158 11.0546 16.7135 11.1562 16.5679L12.5293 17.3801C12.4732 17.3609 12.4158 17.3441 12.3532 17.3441C12.0435 17.3441 11.7918 17.5975 11.7918 17.9093C11.7918 17.92 11.7973 17.9289 11.7978 17.9392L6.31697 21.1808C6.29241 20.8913 6.05786 20.6608 5.76494 20.6608C5.45522 20.6608 5.20354 20.9142 5.20354 21.2261C5.20354 21.4216 5.30919 21.5864 5.45985 21.6872L4.32134 22.3607C4.2578 22.3355 4.19017 22.3192 4.11834 22.3192C3.83694 22.3192 3.61348 22.5315 3.5732 22.8036L1.368 24.1077V10.7638ZM3.56028 8.46882V10.4632L1.97765 9.52744L3.56028 8.46882ZM4.92872 4.18165H23.0208V11.287L13.9743 16.6365L4.92872 11.287V4.18165ZM14.0001 1.4899L15.9656 2.80376H12.0345L14.0001 1.4899ZM26.0225 9.52733L24.3889 10.4931V8.43512L26.0225 9.52733ZM27.9958 9.52214C27.9944 9.49603 27.993 9.47035 27.9884 9.44468C27.9847 9.42279 27.9791 9.40221 27.9741 9.38119C27.968 9.35974 27.962 9.33829 27.9541 9.31728C27.9448 9.29301 27.9337 9.27059 27.9221 9.24773C27.9165 9.23603 27.9128 9.22346 27.9059 9.21176C27.9021 9.20624 27.8975 9.20147 27.8948 9.19638C27.8808 9.17449 27.8651 9.15435 27.8493 9.1343C27.8368 9.11849 27.8248 9.10213 27.8108 9.08718C27.7951 9.07039 27.7779 9.05587 27.7603 9.04092C27.7436 9.02651 27.7283 9.012 27.7112 8.99986C27.6954 8.98816 27.6782 8.97939 27.6611 8.96866L24.3888 6.78142V3.49265C24.3888 3.1123 24.0828 2.80376 23.7051 2.80376H18.4394L14.4166 0.114833C14.3043 0.0396498 14.1726 0 14.0382 0H13.9618C13.8273 0 13.6957 0.0396498 13.5835 0.114833L9.56064 2.80376H4.24445C3.86666 2.80376 3.56017 3.1123 3.56017 3.49265V6.81501L0.338367 8.96866C0.322213 8.97885 0.304982 8.98773 0.28969 8.99943C0.271598 9.012 0.255013 9.02738 0.237352 9.04233C0.22109 9.05685 0.204398 9.07039 0.189644 9.0862C0.175214 9.10159 0.162722 9.11849 0.149691 9.13528C0.133968 9.15489 0.119107 9.17449 0.105215 9.19638C0.101984 9.20147 0.0973536 9.20624 0.0941228 9.21176C0.0871229 9.22346 0.0834609 9.23603 0.0778609 9.24773C0.0657995 9.27059 0.0551377 9.29301 0.0458762 9.31728C0.0380147 9.33829 0.0319847 9.35974 0.025954 9.38119C0.0208925 9.40221 0.0152918 9.42279 0.0110919 9.44468C0.00699961 9.47035 0.00559979 9.49603 0.00366135 9.52214C0.00323058 9.53481 0 9.54738 0 9.56049V25.3106C0 25.3236 0.00323058 25.3367 0.00366135 25.3492C0.00559979 25.3754 0.00699961 25.401 0.0110919 25.4267C0.0152918 25.4483 0.0208925 25.4692 0.025954 25.4898C0.0319847 25.5117 0.0380147 25.5332 0.0458762 25.5546C0.0551377 25.5785 0.0657995 25.6008 0.0778609 25.6232C0.0834609 25.6349 0.0871229 25.648 0.0941228 25.6592C0.0969228 25.6643 0.101014 25.6671 0.103384 25.6723C0.132137 25.7184 0.164984 25.7623 0.203537 25.8011C0.210429 25.8076 0.218291 25.8123 0.22486 25.8189C0.257275 25.8482 0.293029 25.8749 0.330505 25.8977C0.345367 25.9066 0.360228 25.915 0.375951 25.9229C0.409335 25.9397 0.44412 25.9537 0.479766 25.9649C0.495597 25.9696 0.51035 25.9756 0.527042 25.9798C0.572919 25.9906 0.620733 25.9971 0.669841 25.998C0.674472 25.998 0.679641 25.9999 0.684272 25.9999L0.687503 25.9995H27.3121L27.3157 25.9999C27.3204 25.9999 27.325 25.998 27.3302 25.998C27.3793 25.9971 27.427 25.9906 27.4724 25.9798C27.4891 25.9756 27.504 25.9696 27.5197 25.9649C27.5559 25.9537 27.5901 25.9397 27.6241 25.9229C27.6393 25.915 27.6546 25.9066 27.669 25.8977C27.707 25.8749 27.7422 25.8482 27.7747 25.8189C27.7812 25.8123 27.7895 25.8076 27.796 25.8011C27.8349 25.7623 27.8674 25.7184 27.8966 25.6723C27.8989 25.6671 27.9031 25.6643 27.9059 25.6592C27.9128 25.648 27.9165 25.6349 27.9221 25.6232C27.9337 25.6008 27.9448 25.5785 27.9541 25.5546C27.962 25.5332 27.968 25.5117 27.9741 25.4898C27.9791 25.4692 27.9847 25.4483 27.9884 25.4267C27.993 25.401 27.9944 25.3754 27.9958 25.3492C27.9968 25.3367 28 25.3236 28 25.3106V9.56049C28 9.54738 27.9968 9.53481 27.9958 9.52214Z" fill="currentColor"/>
<path fill-rule="evenodd" clip-rule="evenodd" d="M22.2354 14.0275C21.9257 14.0275 21.674 14.2809 21.674 14.5927C21.674 14.904 21.9257 15.1575 22.2354 15.1575C22.5446 15.1575 22.7962 14.904 22.7962 14.5927C22.7962 14.2809 22.5446 14.0275 22.2354 14.0275Z" fill="currentColor"/>
<path fill-rule="evenodd" clip-rule="evenodd" d="M25.5297 14.0275C25.2201 14.0275 24.9684 14.2809 24.9684 14.5927C24.9684 14.904 25.2201 15.1575 25.5297 15.1575C25.839 15.1575 26.0906 14.904 26.0906 14.5927C26.0906 14.2809 25.839 14.0275 25.5297 14.0275Z" fill="currentColor"/>
<path fill-rule="evenodd" clip-rule="evenodd" d="M23.8827 15.6857C23.573 15.6857 23.3209 15.9391 23.3209 16.2509C23.3209 16.5623 23.573 16.8158 23.8827 16.8158C24.1919 16.8158 24.4436 16.5623 24.4436 16.2509C24.4436 15.9391 24.1919 15.6857 23.8827 15.6857Z" fill="currentColor"/>
<path fill-rule="evenodd" clip-rule="evenodd" d="M20.5885 15.6857C20.2787 15.6857 20.0271 15.9391 20.0271 16.2509C20.0271 16.5623 20.2787 16.8158 20.5885 16.8158C20.8976 16.8158 21.1493 16.5623 21.1493 16.2509C21.1493 15.9391 20.8976 15.6857 20.5885 15.6857Z" fill="currentColor"/>
<path fill-rule="evenodd" clip-rule="evenodd" d="M22.2354 17.344C21.9257 17.344 21.674 17.5974 21.674 17.9092C21.674 18.2205 21.9257 18.474 22.2354 18.474C22.5446 18.474 22.7962 18.2205 22.7962 17.9092C22.7962 17.5974 22.5446 17.344 22.2354 17.344Z" fill="currentColor"/>
<path fill-rule="evenodd" clip-rule="evenodd" d="M25.5297 17.344C25.2201 17.344 24.9684 17.5974 24.9684 17.9092C24.9684 18.2205 25.2201 18.474 25.5297 18.474C25.839 18.474 26.0906 18.2205 26.0906 17.9092C26.0906 17.5974 25.839 17.344 25.5297 17.344Z" fill="currentColor"/>
<path fill-rule="evenodd" clip-rule="evenodd" d="M25.5297 20.6609C25.2201 20.6609 24.9684 20.9143 24.9684 21.2262C24.9684 21.5374 25.2201 21.7909 25.5297 21.7909C25.839 21.7909 26.0906 21.5374 26.0906 21.2262C26.0906 20.9143 25.839 20.6609 25.5297 20.6609Z" fill="currentColor"/>
<path fill-rule="evenodd" clip-rule="evenodd" d="M23.8827 19.0022C23.573 19.0022 23.3209 19.2557 23.3209 19.5675C23.3209 19.8789 23.573 20.1323 23.8827 20.1323C24.1919 20.1323 24.4436 19.8789 24.4436 19.5675C24.4436 19.2557 24.1919 19.0022 23.8827 19.0022Z" fill="currentColor"/>
<path fill-rule="evenodd" clip-rule="evenodd" d="M20.5885 19.0022C20.2787 19.0022 20.0271 19.2557 20.0271 19.5675C20.0271 19.8789 20.2787 20.1323 20.5885 20.1323C20.8976 20.1323 21.1493 19.8789 21.1493 19.5675C21.1493 19.2557 20.8976 19.0022 20.5885 19.0022Z" fill="currentColor"/>
<path fill-rule="evenodd" clip-rule="evenodd" d="M20.5885 23.4492C20.8976 23.4492 21.1493 23.1957 21.1493 22.8844C21.1493 22.5726 20.8976 22.3192 20.5885 22.3192C20.2787 22.3192 20.0271 22.5726 20.0271 22.8844C20.0271 23.1957 20.2787 23.4492 20.5885 23.4492Z" fill="currentColor"/>
<path fill-rule="evenodd" clip-rule="evenodd" d="M18.9415 17.344C18.6318 17.344 18.3801 17.5974 18.3801 17.9092C18.3801 18.2205 18.6318 18.474 18.9415 18.474C19.2507 18.474 19.5024 18.2205 19.5024 17.9092C19.5024 17.5974 19.2507 17.344 18.9415 17.344Z" fill="currentColor"/>
<path fill-rule="evenodd" clip-rule="evenodd" d="M15.6471 20.6609C15.3374 20.6609 15.0857 20.9143 15.0857 21.2262C15.0857 21.5374 15.3374 21.7909 15.6471 21.7909C15.9563 21.7909 16.208 21.5374 16.208 21.2262C16.208 20.9143 15.9563 20.6609 15.6471 20.6609Z" fill="currentColor"/>
<path fill-rule="evenodd" clip-rule="evenodd" d="M14.0002 19.0022C13.6905 19.0022 13.4388 19.2557 13.4388 19.5675C13.4388 19.8789 13.6905 20.1323 14.0002 20.1323C14.3094 20.1323 14.5611 19.8789 14.5611 19.5675C14.5611 19.2557 14.3094 19.0022 14.0002 19.0022Z" fill="currentColor"/>
<path fill-rule="evenodd" clip-rule="evenodd" d="M17.2945 22.3193C16.9849 22.3193 16.7327 22.5727 16.7327 22.8844C16.7327 23.1958 16.9849 23.4492 17.2945 23.4492C17.6037 23.4492 17.8555 23.1958 17.8555 22.8844C17.8555 22.5727 17.6037 22.3193 17.2945 22.3193Z" fill="currentColor"/>
<path fill-rule="evenodd" clip-rule="evenodd" d="M14.0002 22.3193C13.6905 22.3193 13.4388 22.5727 13.4388 22.8844C13.4388 23.1958 13.6905 23.4492 14.0002 23.4492C14.3094 23.4492 14.5611 23.1958 14.5611 22.8844C14.5611 22.5727 14.3094 22.3193 14.0002 22.3193Z" fill="currentColor"/>
<path fill-rule="evenodd" clip-rule="evenodd" d="M7.41198 16.8156C7.72116 16.8156 7.97294 16.5621 7.97294 16.2509C7.97294 15.9391 7.72116 15.6856 7.41198 15.6856C7.10236 15.6856 6.85058 15.9391 6.85058 16.2509C6.85058 16.5621 7.10236 16.8156 7.41198 16.8156Z" fill="currentColor"/>
<path fill-rule="evenodd" clip-rule="evenodd" d="M9.0589 18.474C9.36808 18.474 9.61987 18.2205 9.61987 17.9092C9.61987 17.5974 9.36808 17.344 9.0589 17.344C8.74929 17.344 8.49751 17.5974 8.49751 17.9092C8.49751 18.2205 8.74929 18.474 9.0589 18.474Z" fill="currentColor"/>
<path fill-rule="evenodd" clip-rule="evenodd" d="M12.3533 20.6609C12.0436 20.6609 11.7919 20.9143 11.7919 21.2262C11.7919 21.5374 12.0436 21.7909 12.3533 21.7909C12.6625 21.7909 12.9142 21.5374 12.9142 21.2262C12.9142 20.9143 12.6625 20.6609 12.3533 20.6609Z" fill="currentColor"/>
<path fill-rule="evenodd" clip-rule="evenodd" d="M7.41198 20.1323C7.72116 20.1323 7.97294 19.8788 7.97294 19.5674C7.97294 19.2556 7.72116 19.0022 7.41198 19.0022C7.10236 19.0022 6.85058 19.2556 6.85058 19.5674C6.85058 19.8788 7.10236 20.1323 7.41198 20.1323Z" fill="currentColor"/>
<path fill-rule="evenodd" clip-rule="evenodd" d="M10.7063 22.3193C10.3966 22.3193 10.1444 22.5727 10.1444 22.8844C10.1444 23.1958 10.3966 23.4492 10.7063 23.4492C11.0156 23.4492 11.2672 23.1958 11.2672 22.8844C11.2672 22.5727 11.0156 22.3193 10.7063 22.3193Z" fill="currentColor"/>
<path fill-rule="evenodd" clip-rule="evenodd" d="M7.41198 22.3193C7.10236 22.3193 6.85058 22.5727 6.85058 22.8844C6.85058 23.1958 7.10236 23.4492 7.41198 23.4492C7.72116 23.4492 7.97294 23.1958 7.97294 22.8844C7.97294 22.5727 7.72116 22.3193 7.41198 22.3193Z" fill="currentColor"/>
<path fill-rule="evenodd" clip-rule="evenodd" d="M2.47066 14.0275C2.16105 14.0275 1.90926 14.2809 1.90926 14.5927C1.90926 14.904 2.16105 15.1575 2.47066 15.1575C2.77995 15.1575 3.03162 14.904 3.03162 14.5927C3.03162 14.2809 2.77995 14.0275 2.47066 14.0275Z" fill="currentColor"/>
<path fill-rule="evenodd" clip-rule="evenodd" d="M5.76505 15.1574C6.07423 15.1574 6.32602 14.9039 6.32602 14.5927C6.32602 14.2809 6.07423 14.0274 5.76505 14.0274C5.45544 14.0274 5.20365 14.2809 5.20365 14.5927C5.20365 14.9039 5.45544 15.1574 5.76505 15.1574Z" fill="currentColor"/>
<path fill-rule="evenodd" clip-rule="evenodd" d="M4.11813 16.8156C4.42731 16.8156 4.67909 16.5621 4.67909 16.2509C4.67909 15.9391 4.42731 15.6856 4.11813 15.6856C3.80851 15.6856 3.55673 15.9391 3.55673 16.2509C3.55673 16.5621 3.80851 16.8156 4.11813 16.8156Z" fill="currentColor"/>
<path fill-rule="evenodd" clip-rule="evenodd" d="M2.47066 17.344C2.16105 17.344 1.90926 17.5974 1.90926 17.9092C1.90926 18.2205 2.16105 18.474 2.47066 18.474C2.77995 18.474 3.03162 18.2205 3.03162 17.9092C3.03162 17.5974 2.77995 17.344 2.47066 17.344Z" fill="currentColor"/>
<path fill-rule="evenodd" clip-rule="evenodd" d="M5.76505 18.474C6.07423 18.474 6.32602 18.2205 6.32602 17.9092C6.32602 17.5974 6.07423 17.344 5.76505 17.344C5.45544 17.344 5.20365 17.5974 5.20365 17.9092C5.20365 18.2205 5.45544 18.474 5.76505 18.474Z" fill="currentColor"/>
<path fill-rule="evenodd" clip-rule="evenodd" d="M2.47066 20.6609C2.16105 20.6609 1.90926 20.9143 1.90926 21.2262C1.90926 21.5374 2.16105 21.7909 2.47066 21.7909C2.77995 21.7909 3.03162 21.5374 3.03162 21.2262C3.03162 20.9143 2.77995 20.6609 2.47066 20.6609Z" fill="currentColor"/>
<path fill-rule="evenodd" clip-rule="evenodd" d="M4.11813 20.1323C4.42731 20.1323 4.67909 19.8788 4.67909 19.5674C4.67909 19.2556 4.42731 19.0022 4.11813 19.0022C3.80851 19.0022 3.55673 19.2556 3.55673 19.5674C3.55673 19.8788 3.80851 20.1323 4.11813 20.1323Z" fill="currentColor"/>
<path fill-rule="evenodd" clip-rule="evenodd" d="M12.6126 11.6377C12.3396 11.3824 12.0953 11.1364 11.8872 10.9063C11.6211 10.6136 11.4185 10.3499 11.286 10.1259C11.2498 10.0638 11.2154 10.0031 11.1881 9.94192C10.7306 8.93096 11.0857 8.2047 11.641 7.93311C11.7726 7.86865 11.9224 7.83648 12.0805 7.83648C12.2423 7.83648 12.4128 7.87049 12.5806 7.93777C12.7429 8.00353 12.8982 8.10059 13.0442 8.22669C13.1736 8.33914 13.2923 8.47174 13.3956 8.62156C13.5203 8.82079 13.7391 8.9431 13.975 8.9431C14.2147 8.9431 14.4358 8.81711 14.5591 8.61312C14.6617 8.46654 14.778 8.33687 14.9063 8.22572C15.051 8.10059 15.2063 8.00353 15.3676 7.9382C15.6991 7.8043 16.0416 7.80192 16.3082 7.93311C16.8635 8.2047 17.2191 8.93053 16.7597 9.94431C16.7342 10.0022 16.7004 10.0624 16.6638 10.124C16.5308 10.3499 16.3286 10.6136 16.0615 10.9067C15.8563 11.134 15.6119 11.3796 15.3458 11.6283L13.9746 12.8601L12.6126 11.6377ZM14.4332 14.2945L16.2671 12.6478C16.5707 12.364 16.8419 12.0905 17.0728 11.8361C17.4014 11.473 17.6601 11.1341 17.8405 10.8274C17.9039 10.7196 17.9619 10.6133 18.0064 10.5138C18.8047 8.74896 18.057 7.25592 16.9064 6.69389C16.2949 6.39522 15.549 6.38167 14.8583 6.65987C14.5561 6.78207 14.2719 6.95811 14.0141 7.18117C14.0008 7.19287 13.9877 7.20403 13.9748 7.21573C13.9618 7.20457 13.9493 7.1933 13.9362 7.18215C13.6776 6.95811 13.3935 6.78207 13.0902 6.65933C12.4005 6.38113 11.655 6.39381 11.0431 6.69346C9.89211 7.25635 9.14484 8.74951 9.94176 10.5114C9.98709 10.6123 10.0446 10.7182 10.1086 10.8279C10.2898 11.135 10.5485 11.4739 10.8763 11.8356C11.1103 12.0937 11.3816 12.3668 11.6926 12.6571L13.5163 14.2945C13.6419 14.4074 13.8097 14.4691 13.9775 14.4691C14.1458 14.4691 14.3076 14.4074 14.4332 14.2945Z" fill="currentColor"/>
</svg>
