<svg width="23" height="28" viewBox="0 0 23 28" fill="none" xmlns="http://www.w3.org/2000/svg">
<path d="M11.4018 13.2431C15.089 13.2431 18.0885 10.2722 18.0885 6.62271C18.0885 2.97085 15.089 0 11.4018 0C7.71458 0 4.715 2.97085 4.715 6.62271C4.715 10.2722 7.71458 13.2431 11.4018 13.2431ZM11.4018 1.42373C14.2959 1.42373 16.651 3.75627 16.651 6.62271C16.651 9.48915 14.2959 11.8193 11.4018 11.8193C8.5076 11.8193 6.1525 9.48915 6.1525 6.62271C6.1525 3.75627 8.5076 1.42373 11.4018 1.42373Z" fill="currentColor"/>
<path d="M13.812 14.3417H8.99156C4.03458 14.3417 0 18.3376 0 23.2471V27.16C0 27.5539 0.321042 27.8719 0.71875 27.8719C1.11406 27.8719 1.4375 27.5539 1.4375 27.16V24.9912C1.63156 24.8986 1.76813 24.7064 1.76813 24.4786C1.76813 24.2532 1.63156 24.0586 1.4375 23.9661V23.2471C1.4375 21.9492 1.77531 20.7247 2.36469 19.6593C2.45813 19.8563 2.65698 19.9963 2.88938 19.9963C3.20802 19.9963 3.46917 19.7376 3.46917 19.422C3.46917 19.1064 3.21281 18.8502 2.89417 18.8478C3.22958 18.3938 3.61052 17.9825 4.03698 17.6139C4.0274 17.6542 4.01062 17.6922 4.01062 17.7349C4.01062 18.0505 4.27177 18.3092 4.59281 18.3092C4.91146 18.3092 5.1726 18.0505 5.1726 17.7349C5.1726 17.4241 4.92104 17.1749 4.60958 17.163C5.00569 16.883 5.42736 16.6418 5.87458 16.4393C5.98 16.5508 6.12854 16.622 6.29385 16.622C6.60531 16.622 6.85688 16.3776 6.86885 16.0715C7.54448 15.8746 8.25604 15.7654 8.99156 15.7654H9.20479C9.15448 15.8508 9.11854 15.9434 9.11854 16.0478C9.11854 16.3658 9.37969 16.622 9.69833 16.622C10.0194 16.622 10.2781 16.3658 10.2781 16.0478C10.2781 15.9434 10.2422 15.8508 10.1919 15.7654H12.6117C12.5614 15.8508 12.5254 15.9434 12.5254 16.0478C12.5254 16.3658 12.7842 16.622 13.1052 16.622C13.4239 16.622 13.685 16.3658 13.685 16.0478C13.685 15.9434 13.6491 15.8508 13.5988 15.7654H13.812C14.5499 15.7654 15.2591 15.8746 15.9347 16.0715C15.9467 16.3776 16.1982 16.622 16.5097 16.622C16.675 16.622 16.8235 16.5508 16.929 16.4393C17.3762 16.6418 17.7978 16.883 18.194 17.163C17.8825 17.1749 17.6309 17.4241 17.6309 17.7349C17.6309 18.0505 17.8921 18.3092 18.2107 18.3092C18.5318 18.3092 18.7905 18.0505 18.7905 17.7349C18.7905 17.6922 18.7761 17.6542 18.7666 17.6139C19.193 17.9825 19.574 18.3938 19.9094 18.8478C19.5907 18.8502 19.3344 19.1064 19.3344 19.422C19.3344 19.7376 19.5955 19.9963 19.9142 19.9963C20.1466 19.9963 20.3454 19.8563 20.4389 19.6593C21.0282 20.7247 21.366 21.9492 21.366 23.2471V23.9661C21.172 24.061 21.0354 24.2532 21.0354 24.4786C21.0354 24.7064 21.172 24.8986 21.366 24.9912V27.16C21.366 27.5539 21.6895 27.8719 22.0848 27.8719C22.4825 27.8719 22.8035 27.5539 22.8035 27.16V23.2471C22.8035 18.3376 18.769 14.3417 13.812 14.3417Z" fill="currentColor"/>
<path d="M19.9142 22.2173C19.5955 22.2173 19.3344 22.4759 19.3344 22.7939C19.3344 23.1095 19.5955 23.3681 19.9142 23.3681C20.2352 23.3681 20.494 23.1095 20.494 22.7939C20.494 22.4759 20.2352 22.2173 19.9142 22.2173Z" fill="currentColor"/>
<path d="M19.9142 25.5915C19.5955 25.5915 19.3344 25.8478 19.3344 26.1658C19.3344 26.4814 19.5955 26.74 19.9142 26.74C20.2352 26.74 20.494 26.4814 20.494 26.1658C20.494 25.8478 20.2352 25.5915 19.9142 25.5915Z" fill="currentColor"/>
<path d="M14.8062 17.1607C14.4876 17.1607 14.2265 17.4169 14.2265 17.7349C14.2265 18.0505 14.4876 18.3092 14.8062 18.3092C15.1273 18.3092 15.386 18.0505 15.386 17.7349C15.386 17.4169 15.1273 17.1607 14.8062 17.1607Z" fill="currentColor"/>
<path d="M14.8062 20.5325C14.4876 20.5325 14.2265 20.7888 14.2265 21.1068C14.2265 21.4224 14.4876 21.681 14.8062 21.681C15.1273 21.681 15.386 21.4224 15.386 21.1068C15.386 20.7888 15.1273 20.5325 14.8062 20.5325Z" fill="currentColor"/>
<path d="M18.2107 20.5325C17.8921 20.5325 17.6309 20.7888 17.6309 21.1068C17.6309 21.4224 17.8921 21.681 18.2107 21.681C18.5318 21.681 18.7905 21.4224 18.7905 21.1068C18.7905 20.7888 18.5318 20.5325 18.2107 20.5325Z" fill="currentColor"/>
<path d="M16.5097 18.8454C16.1886 18.8454 15.9299 19.1041 15.9299 19.422C15.9299 19.7376 16.1886 19.9963 16.5097 19.9963C16.8283 19.9963 17.0895 19.7376 17.0895 19.422C17.0895 19.1041 16.8283 18.8454 16.5097 18.8454Z" fill="currentColor"/>
<path d="M13.1052 18.8454C12.7842 18.8454 12.5254 19.1041 12.5254 19.422C12.5254 19.7376 12.7842 19.9963 13.1052 19.9963C13.4239 19.9963 13.685 19.7376 13.685 19.422C13.685 19.1041 13.4239 18.8454 13.1052 18.8454Z" fill="currentColor"/>
<path d="M16.5097 22.2173C16.1886 22.2173 15.9299 22.4759 15.9299 22.7939C15.9299 23.1095 16.1886 23.3681 16.5097 23.3681C16.8283 23.3681 17.0895 23.1095 17.0895 22.7939C17.0895 22.4759 16.8283 22.2173 16.5097 22.2173Z" fill="currentColor"/>
<path d="M13.1052 22.2173C12.7842 22.2173 12.5254 22.4759 12.5254 22.7939C12.5254 23.1095 12.7842 23.3681 13.1052 23.3681C13.4239 23.3681 13.685 23.1095 13.685 22.7939C13.685 22.4759 13.4239 22.2173 13.1052 22.2173Z" fill="currentColor"/>
<path d="M14.8062 23.9044C14.4876 23.9044 14.2265 24.1631 14.2265 24.4786C14.2265 24.7966 14.4876 25.0529 14.8062 25.0529C15.1273 25.0529 15.386 24.7966 15.386 24.4786C15.386 24.1631 15.1273 23.9044 14.8062 23.9044Z" fill="currentColor"/>
<path d="M18.2107 23.9044C17.8921 23.9044 17.6309 24.1631 17.6309 24.4786C17.6309 24.7966 17.8921 25.0529 18.2107 25.0529C18.5318 25.0529 18.7905 24.7966 18.7905 24.4786C18.7905 24.1631 18.5318 23.9044 18.2107 23.9044Z" fill="currentColor"/>
<path d="M16.5097 25.5915C16.1886 25.5915 15.9299 25.8478 15.9299 26.1658C15.9299 26.4814 16.1886 26.74 16.5097 26.74C16.8283 26.74 17.0895 26.4814 17.0895 26.1658C17.0895 25.8478 16.8283 25.5915 16.5097 25.5915Z" fill="currentColor"/>
<path d="M13.1052 25.5915C12.7842 25.5915 12.5254 25.8478 12.5254 26.1658C12.5254 26.4814 12.7842 26.74 13.1052 26.74C13.4239 26.74 13.685 26.4814 13.685 26.1658C13.685 25.8478 13.4239 25.5915 13.1052 25.5915Z" fill="currentColor"/>
<path d="M7.99729 17.1607C7.67625 17.1607 7.4175 17.4169 7.4175 17.7349C7.4175 18.0505 7.67625 18.3092 7.99729 18.3092C8.31594 18.3092 8.57708 18.0505 8.57708 17.7349C8.57708 17.4169 8.31594 17.1607 7.99729 17.1607Z" fill="currentColor"/>
<path d="M11.4018 17.1607C11.0807 17.1607 10.822 17.4169 10.822 17.7349C10.822 18.0505 11.0807 18.3092 11.4018 18.3092C11.7204 18.3092 11.9816 18.0505 11.9816 17.7349C11.9816 17.4169 11.7204 17.1607 11.4018 17.1607Z" fill="currentColor"/>
<path d="M7.99729 20.5325C7.67625 20.5325 7.4175 20.7888 7.4175 21.1068C7.4175 21.4224 7.67625 21.681 7.99729 21.681C8.31594 21.681 8.57708 21.4224 8.57708 21.1068C8.57708 20.7888 8.31594 20.5325 7.99729 20.5325Z" fill="currentColor"/>
<path d="M11.4018 20.5325C11.0807 20.5325 10.822 20.7888 10.822 21.1068C10.822 21.4224 11.0807 21.681 11.4018 21.681C11.7204 21.681 11.9816 21.4224 11.9816 21.1068C11.9816 20.7888 11.7204 20.5325 11.4018 20.5325Z" fill="currentColor"/>
<path d="M9.69833 18.8454C9.37969 18.8454 9.11854 19.1041 9.11854 19.422C9.11854 19.7376 9.37969 19.9963 9.69833 19.9963C10.0194 19.9963 10.2781 19.7376 10.2781 19.422C10.2781 19.1041 10.0194 18.8454 9.69833 18.8454Z" fill="currentColor"/>
<path d="M6.29385 18.8454C5.97521 18.8454 5.71406 19.1041 5.71406 19.422C5.71406 19.7376 5.97521 19.9963 6.29385 19.9963C6.6149 19.9963 6.87365 19.7376 6.87365 19.422C6.87365 19.1041 6.6149 18.8454 6.29385 18.8454Z" fill="currentColor"/>
<path d="M9.69833 22.2173C9.37969 22.2173 9.11854 22.4759 9.11854 22.7939C9.11854 23.1095 9.37969 23.3681 9.69833 23.3681C10.0194 23.3681 10.2781 23.1095 10.2781 22.7939C10.2781 22.4759 10.0194 22.2173 9.69833 22.2173Z" fill="currentColor"/>
<path d="M6.29385 22.2173C5.97521 22.2173 5.71406 22.4759 5.71406 22.7939C5.71406 23.1095 5.97521 23.3681 6.29385 23.3681C6.6149 23.3681 6.87365 23.1095 6.87365 22.7939C6.87365 22.4759 6.6149 22.2173 6.29385 22.2173Z" fill="currentColor"/>
<path d="M7.99729 23.9044C7.67625 23.9044 7.4175 24.1631 7.4175 24.4786C7.4175 24.7966 7.67625 25.0529 7.99729 25.0529C8.31594 25.0529 8.57708 24.7966 8.57708 24.4786C8.57708 24.1631 8.31594 23.9044 7.99729 23.9044Z" fill="currentColor"/>
<path d="M11.4018 23.9044C11.0807 23.9044 10.822 24.1631 10.822 24.4786C10.822 24.7966 11.0807 25.0529 11.4018 25.0529C11.7204 25.0529 11.9816 24.7966 11.9816 24.4786C11.9816 24.1631 11.7204 23.9044 11.4018 23.9044Z" fill="currentColor"/>
<path d="M9.69833 25.5915C9.37969 25.5915 9.11854 25.8478 9.11854 26.1658C9.11854 26.4814 9.37969 26.74 9.69833 26.74C10.0194 26.74 10.2781 26.4814 10.2781 26.1658C10.2781 25.8478 10.0194 25.5915 9.69833 25.5915Z" fill="currentColor"/>
<path d="M6.29385 25.5915C5.97521 25.5915 5.71406 25.8478 5.71406 26.1658C5.71406 26.4814 5.97521 26.74 6.29385 26.74C6.6149 26.74 6.87365 26.4814 6.87365 26.1658C6.87365 25.8478 6.6149 25.5915 6.29385 25.5915Z" fill="currentColor"/>
<path d="M4.59281 20.5325C4.27177 20.5325 4.01062 20.7888 4.01062 21.1068C4.01062 21.4224 4.27177 21.681 4.59281 21.681C4.91146 21.681 5.1726 21.4224 5.1726 21.1068C5.1726 20.7888 4.91146 20.5325 4.59281 20.5325Z" fill="currentColor"/>
<path d="M2.88938 22.2173C2.56833 22.2173 2.30958 22.4759 2.30958 22.7939C2.30958 23.1095 2.56833 23.3681 2.88938 23.3681C3.20802 23.3681 3.46917 23.1095 3.46917 22.7939C3.46917 22.4759 3.20802 22.2173 2.88938 22.2173Z" fill="currentColor"/>
<path d="M4.59281 23.9044C4.27177 23.9044 4.01062 24.1631 4.01062 24.4786C4.01062 24.7966 4.27177 25.0529 4.59281 25.0529C4.91146 25.0529 5.1726 24.7966 5.1726 24.4786C5.1726 24.1631 4.91146 23.9044 4.59281 23.9044Z" fill="currentColor"/>
<path d="M2.88938 25.5915C2.56833 25.5915 2.30958 25.8478 2.30958 26.1658C2.30958 26.4814 2.56833 26.74 2.88938 26.74C3.20802 26.74 3.46917 26.4814 3.46917 26.1658C3.46917 25.8478 3.20802 25.5915 2.88938 25.5915Z" fill="currentColor"/>
</svg>
