<svg version="1.2" xmlns="http://www.w3.org/2000/svg" viewBox="11.999999999999993 21.999999999999993 167.99999999999997 147.99999999999994" width="169" height="149">
	<g id="Layer 1">
		<g id="group-R5">
			<path id="path2" class="s0" d="m177.28 151.61l-71.04-123.05c-2.13-3.7-5.96-5.91-10.24-5.91-4.28 0-8.11 2.21-10.24 5.91l-71.04 123.05c-2.14 3.7-2.14 8.12 0 11.83 2.14 3.7 5.96 5.91 10.24 5.91h142.08c4.28 0 8.1-2.21 10.24-5.91 2.14-3.71 2.14-8.13 0-11.83zm-6.92 7.83c-0.34 0.57-1.33 1.91-3.32 1.91h-9.15c0.55-0.53 0.91-1.27 0.91-2.1 0-1.61-1.3-2.91-2.91-2.91-1.61 0-2.92 1.3-2.92 2.91 0 0.83 0.36 1.57 0.92 2.1h-13.12c0.56-0.53 0.92-1.27 0.92-2.1 0-1.61-1.31-2.91-2.91-2.91-1.61 0-2.92 1.3-2.92 2.91 0 0.83 0.36 1.57 0.92 2.1h-13.12c0.56-0.53 0.92-1.27 0.92-2.1 0-1.61-1.3-2.91-2.91-2.91-1.61 0-2.92 1.3-2.92 2.91 0 0.83 0.36 1.57 0.92 2.1h-13.12c0.56-0.53 0.92-1.27 0.92-2.1 0-1.61-1.31-2.91-2.91-2.91-1.61 0-2.92 1.3-2.92 2.91 0 0.83 0.36 1.57 0.92 2.1h-13.12c0.56-0.53 0.92-1.27 0.92-2.1 0-1.61-1.31-2.91-2.91-2.91-1.61 0-2.92 1.3-2.92 2.91 0 0.83 0.36 1.57 0.92 2.1h-13.12c0.56-0.53 0.92-1.27 0.92-2.1 0-1.61-1.31-2.91-2.92-2.91-1.6 0-2.91 1.3-2.91 2.91 0 0.83 0.36 1.57 0.92 2.1h-13.12c0.56-0.53 0.92-1.27 0.92-2.1 0-1.61-1.31-2.91-2.92-2.91-1.6 0-2.91 1.3-2.91 2.91 0 0.83 0.36 1.57 0.92 2.1h-13.12c0.56-0.53 0.92-1.27 0.92-2.1 0-1.61-1.31-2.91-2.92-2.91-1.61 0-2.91 1.3-2.91 2.91 0 0.83 0.35 1.57 0.91 2.1h-9.15c-2 0-2.98-1.34-3.32-1.91-0.33-0.58-0.99-2.1 0-3.83l3.09-5.35c-0.02 0.15-0.09 0.28-0.09 0.43 0 1.61 1.31 2.92 2.92 2.92 1.6 0 2.91-1.31 2.91-2.92 0-1.6-1.31-2.91-2.91-2.91-0.68 0-1.28 0.27-1.78 0.66l66.9-115.88c1-1.72 2.65-1.91 3.32-1.91 0.67 0 2.32 0.19 3.32 1.91l66.9 115.88c-0.5-0.39-1.1-0.66-1.78-0.66-1.6 0-2.91 1.31-2.91 2.91 0 1.61 1.31 2.92 2.91 2.92 1.61 0 2.92-1.31 2.92-2.92 0-0.15-0.07-0.28-0.09-0.43l3.09 5.35c0.99 1.73 0.33 3.25 0 3.83z"/>
			<path id="path3" class="s0" d="m96 117.37c-6.61 0-11.98 5.42-11.98 12.08 0 6.55 5.37 11.88 11.98 11.88 6.6 0 11.98-5.33 11.98-11.88 0-6.66-5.38-12.08-11.98-12.08zm0 16.24c-2.39 0-4.26-1.83-4.26-4.16 0-2.4 1.91-4.36 4.26-4.36 2.35 0 4.26 1.96 4.26 4.36 0 2.33-1.87 4.16-4.26 4.16z"/>
			<path id="path4" class="s0" d="m90.72 113.93h10.57c2.04 0 3.72-1.58 3.85-3.62l2.74-44.8c0.06-1.06-0.31-2.1-1.04-2.88-0.73-0.77-1.75-1.21-2.81-1.21h-16.05c-1.07 0-2.09 0.44-2.81 1.21-0.73 0.78-1.11 1.82-1.05 2.88l2.74 44.8c0.13 2.04 1.82 3.62 3.86 3.62zm9.2-44.79l-2.27 37.08h-3.3l-2.27-37.08z"/>
			<path id="path5" class="s0" d="m147.33 147.78c-1.6 0-2.91 1.31-2.91 2.91 0 1.61 1.31 2.92 2.91 2.92 1.61 0 2.92-1.31 2.92-2.92 0-1.6-1.31-2.91-2.92-2.91z"/>
			<path id="path6" class="s0" d="m130.22 147.78c-1.61 0-2.91 1.31-2.91 2.91 0 1.61 1.3 2.92 2.91 2.92 1.61 0 2.91-1.31 2.91-2.92 0-1.6-1.3-2.91-2.91-2.91z"/>
			<path id="path7" class="s0" d="m113.11 147.78c-1.61 0-2.91 1.31-2.91 2.91 0 1.61 1.3 2.92 2.91 2.92 1.61 0 2.92-1.31 2.92-2.92 0-1.6-1.31-2.91-2.92-2.91z"/>
			<path id="path8" class="s0" d="m96 147.78c-1.61 0-2.92 1.31-2.92 2.91 0 1.61 1.31 2.92 2.92 2.92 1.61 0 2.91-1.31 2.91-2.92 0-1.6-1.3-2.91-2.91-2.91z"/>
			<path id="path9" class="s0" d="m78.89 147.78c-1.61 0-2.91 1.31-2.91 2.91 0 1.61 1.3 2.92 2.91 2.92 1.61 0 2.91-1.31 2.91-2.92 0-1.6-1.3-2.91-2.91-2.91z"/>
			<path id="path10" class="s0" d="m61.78 147.78c-1.61 0-2.92 1.31-2.92 2.91 0 1.61 1.31 2.92 2.92 2.92 1.61 0 2.91-1.31 2.91-2.92 0-1.6-1.3-2.91-2.91-2.91z"/>
			<path id="path11" class="s0" d="m44.67 147.78c-1.61 0-2.92 1.31-2.92 2.91 0 1.61 1.31 2.92 2.92 2.92 1.61 0 2.91-1.31 2.91-2.92 0-1.6-1.3-2.91-2.91-2.91z"/>
		</g>
	</g>
</svg>